<svg height="131.854" viewBox="0 0 131.593 131.854" width="131.593" xmlns="http://www.w3.org/2000/svg" xmlns:xlink="http://www.w3.org/1999/xlink"><clipPath id="a"><path d="m0 0h131.593v131.854h-131.593z"/></clipPath><g clip-path="url(#a)" fill="#54171a"><path d="m131.591 41.851a41.607 41.607 0 0 1 -34.236 40.933c-4.082.693-8.224 1.116-12.355 1.416a9.949 9.949 0 0 0 -6.979 3.315c-8.135 8.772-17.08 16.72-25.765 24.923a170.6 170.6 0 0 1 -14.633 11.712 46.258 46.258 0 0 1 -11.258 6.058c-5.695 2.209-11.311 2.346-16.89-.525-6.1-3.138-9.145-8.234-9.447-14.908-.327-7.222 2.146-13.668 6.524-19.312a113.125 113.125 0 0 1 8.541-9.794c8.407-8.588 17.223-16.756 26.142-24.807 1.563-1.41 3.016-2.938 4.553-4.376 1.857-1.73 3.681-3.508 5.652-5.1a2.5 2.5 0 0 0 .992-2.826 33.41 33.41 0 0 1 .043-14.56 38.308 38.308 0 0 1 2.605-7.326c6.32-12.874 16.383-21.597 30.2-25.349 14.19-3.851 25.946.87 35.352 11.829a56.025 56.025 0 0 1 4.916 6.976 40.016 40.016 0 0 1 6.042 21.722m-5.847-1.484a32.574 32.574 0 0 0 -4.883-17.63c-1.342-2.222-2.851-4.348-4.376-6.451a29.374 29.374 0 0 0 -14.6-10.4c-6.608-2.3-13.2-1.616-19.629.845-10.784 4.127-18.63 11.534-23.86 21.76a18.854 18.854 0 0 0 -1.527 3.97 37.02 37.02 0 0 0 -.868 16.19 4.767 4.767 0 0 1 -1.9 5.068 25.979 25.979 0 0 0 -2.3 2.156c-2.945 2.92-5.842 5.893-8.828 8.769-8.472 8.167-17.038 16.229-25.43 24.473a79.122 79.122 0 0 0 -7.63 8.856c-3.58 4.736-5.969 10.043-5.769 16.126a12.667 12.667 0 0 0 6.557 11.156 15.973 15.973 0 0 0 14.617 1.167 47.454 47.454 0 0 0 11.042-6.05 111.4 111.4 0 0 0 13.394-11.466q12.334-12.614 24.617-25.281c.561-.576 1.142-1.134 1.735-1.679a10.806 10.806 0 0 1 6.3-2.887c2.156-.236 4.307-.495 6.461-.731a57.423 57.423 0 0 0 13.417-2.788c11.753-4.267 23.865-17.843 23.457-35.174" transform="translate(-.001 -.001)"/><path d="m78.579 27.865c-.02 17.11-11.951 30.327-26.953 31.651-12.626 1.113-22.787-6.778-25.94-18.416-4.163-15.375 7.9-32.922 23.9-35.352a25.517 25.517 0 0 1 15.741 2.186c8.935 4.538 12.973 12.148 13.252 19.931m-3.879 2.423a23.628 23.628 0 0 0 -1.3-7.469c-3.255-9.269-12.238-14.482-20.348-13.761-10.5.931-17.935 6.3-22.059 15.989a23.378 23.378 0 0 0 -1.243 15.288 20.391 20.391 0 0 0 19.71 15.18c13.5.2 25.309-11.608 25.235-25.228" transform="translate(38.199 8.263)"/><path d="m46.38 38.495a23 23 0 0 1 -.959 4.127 59.5 59.5 0 0 1 -3.305 6.408 18.189 18.189 0 0 1 -2.416 3.054 99.769 99.769 0 0 1 -21.021 17.567c-.738.454-1.5.87-2.268 1.271-3.6 1.89-6.674.974-9.272-2.387a8.513 8.513 0 0 1 -1.1-8.625 27.611 27.611 0 0 1 7.108-10.31 152.809 152.809 0 0 1 14.007-11.6c1.684-1.258 3.326-2.58 4.949-3.917a13.032 13.032 0 0 1 5.956-2.856c4.315-.819 7.285 1.228 8.006 5.571.091.548.119 1.106.175 1.659l.14.041m-16.587 17.959c3.95-3.747 8.036-7.169 10.928-11.707a23.1 23.1 0 0 0 1.844-3.836 5.93 5.93 0 0 0 .236-3.825c-.675-2.463-2.194-3.47-4.708-3.047a10.682 10.682 0 0 0 -4.662 2.171c-2.121 1.6-4.269 3.168-6.39 4.774-1.669 1.261-3.31 2.56-4.9 3.795 2.56 3.9 5.028 7.669 7.656 11.674m-9.647-9.939c-3.539 3.458-7.252 6.748-9.591 11.189a17.188 17.188 0 0 0 -1.471 4.551 7.779 7.779 0 0 0 .1 3.115c.786 3.612 3.1 4.591 6.281 2.724a53.869 53.869 0 0 0 10.812-8.384 5.335 5.335 0 0 0 .528-.68c-2.23-4.193-4.373-8.216-6.661-12.516" transform="translate(8.23 47.71)"/><path d="m33.636 30.8c-.015 1.892-2.052 3.572-4.285 3.531a3.142 3.142 0 0 1 -3.247-3.3 3.684 3.684 0 0 1 3.739-3.6c2.354-.023 3.81 1.268 3.792 3.369" transform="translate(40.114 42.158)"/><path d="m26.341 24.186a3.008 3.008 0 0 1 2.747 1.689 2.8 2.8 0 0 1 -.538 3.115 4.073 4.073 0 0 1 -3.087 1.81 3.01 3.01 0 0 1 -2.874-4.1 4.342 4.342 0 0 1 3.752-2.514" transform="translate(34.398 37.167)"/></g></svg>