<?xml version="1.0" encoding="utf-8"?>
<!-- Generator: Adobe Illustrator 27.7.0, SVG Export Plug-In . SVG Version: 6.00 Build 0)  -->
<svg version="1.1" id="Capa_1" xmlns="http://www.w3.org/2000/svg" xmlns:xlink="http://www.w3.org/1999/xlink" x="0px" y="0px"
	 viewBox="0 0 142 142" style="enable-background:new 0 0 142 142;" xml:space="preserve">
<style type="text/css">
	.st0{clip-path:url(#SVGID_00000083071678939986170050000009546776867524945597_);}
	.st1{fill:#54171A;}
	.st2{fill:#EFBE94;}
</style>
<g id="Grupo_76" transform="translate(0)">
	<g>
		<defs>
			<rect id="SVGID_1_" x="28" y="4" width="86" height="134"/>
		</defs>
		<clipPath id="SVGID_00000116951343100200534850000000007911959931159938_">
			<use xlink:href="#SVGID_1_"  style="overflow:visible;"/>
		</clipPath>
		
			<g id="Grupo_75" transform="translate(0 0)" style="clip-path:url(#SVGID_00000116951343100200534850000000007911959931159938_);">
			<path id="Trazado_106" class="st1" d="M76.2,66.4c0,7.9,2.3,19.4-5.8,24.2c-1.8,1.1-4.1,1.5-5.2,3.5c-1.4,2.5-0.6,6.6-0.6,9.3
				c0,4.3,0,8.5,0,12.8c0,3.9,0.8,8.8-0.6,12.5c-3.3,9.1-20.1,6.1-20.7-3.3c-0.6-9.1,0.2-18.4,0-27.6c-0.1-6.8-6.7-5.9-9.8-11.1
				c-2-3.3-1.7-7.2-1.7-10.9c0-4.9,0-9.8,0-14.6c0-8-1-17.9,8.4-20.9c4.7-1.5,10.6-0.6,15.5-0.6c4.5,0,9.7-0.7,13.9,1.5
				C78.6,45.9,76.2,58,76.2,66.4c0,2.5,3.9,2.5,3.9,0c0-8.4,1.9-18.7-4.4-25.5c-6.1-6.7-15.6-5.2-23.8-5.2c-8.4,0-17-0.2-21.8,8
				c-1.8,3.2-2.2,6.6-2.2,10.2c0,6.1,0,12.2,0,18.3c0,7.8-0.7,16,6.4,21.1c1.7,1.2,4.1,1.7,5.1,3.7c0.9,1.9,0,7.4,0,9.5
				c0,6.3-0.4,12.7,0,19c0.9,15.3,26.4,17.3,28.9,2.1c0.9-5.7,0.2-12,0.3-17.7c0-3,0-6.1,0-9.1c0-1.8-0.4-3.1,0.7-4.6
				c1-1.4,2.7-1.8,4.1-2.8c8.7-6.1,6.7-17.7,6.7-26.9C80.1,63.9,76.2,63.9,76.2,66.4"/>
			<path id="Trazado_107" class="st1" d="M54.4,31.4c-4.9-0.1-9.3-3.2-11.2-7.7c-2.3-6,0.7-12.7,6.7-15c3.3-1.3,7.1-1,10.1,0.9
				c4.2,2.5,6.4,7.2,5.7,12C64.7,27.1,60,31.2,54.4,31.4c-2.5,0-2.5,3.9,0,3.9c6.7-0.2,12.5-4.6,14.6-10.9c2.6-8.3-2-17.1-10.2-19.7
				C54.4,3.4,49.8,4,46,6.2c-5.6,3.4-8.5,9.9-7.2,16.4c1.7,7.3,8.1,12.6,15.6,12.7C56.9,35.4,56.9,31.5,54.4,31.4"/>
			<path id="Trazado_108" class="st1" d="M114,77.4c0,15.6-12.6,28.2-28.2,28.2S57.7,93,57.7,77.4s12.6-28.2,28.2-28.2l0,0
				C101.4,49.3,114,61.9,114,77.4"/>
			<path id="Trazado_109" class="st2" d="M84,71.7l-3.2,2.9L79.4,73l4.8-4h2.1v17.2H84V71.7z"/>
			<path id="Trazado_110" class="st2" d="M92.7,82c0.2,0.7,0.6,1.3,1.1,1.8c0.6,0.4,1.3,0.7,2.1,0.6c0.4,0,0.9-0.1,1.3-0.2
				c0.4-0.2,0.7-0.4,1.1-0.6c0.3-0.3,0.6-0.6,0.7-1c0.2-0.4,0.3-0.8,0.3-1.3c0-0.6-0.1-1.2-0.4-1.7c-0.3-0.4-0.7-0.8-1.2-1
				c-0.5-0.2-1-0.4-1.6-0.4c-0.6-0.1-1.1-0.1-1.7-0.1v-2c0.7,0,1.5,0,2.2-0.2c0.5-0.1,0.9-0.3,1.3-0.5c0.3-0.2,0.5-0.5,0.7-0.9
				c0.1-0.4,0.2-0.8,0.2-1.1c0.1-0.8-0.3-1.6-0.8-2.1c-0.6-0.5-1.3-0.7-2.1-0.7c-0.6,0-1.2,0.2-1.7,0.5c-0.5,0.4-0.9,0.9-1.2,1.5
				l-2.4-0.8c0.4-1,1.1-1.9,2.1-2.4c1-0.5,2-0.8,3.1-0.8c0.7,0,1.4,0.1,2,0.3c0.6,0.2,1.2,0.5,1.7,0.9c0.5,0.4,0.9,0.9,1.2,1.5
				c0.3,0.7,0.4,1.4,0.4,2.1c0,0.9-0.3,1.7-0.8,2.4c-0.5,0.7-1.3,1.2-2.1,1.5v0c0.5,0.1,1,0.3,1.4,0.5c0.4,0.2,0.8,0.6,1.1,1
				c0.3,0.4,0.5,0.8,0.7,1.3c0.1,0.5,0.2,1,0.2,1.5c0,0.8-0.1,1.5-0.5,2.2c-0.3,0.6-0.7,1.1-1.3,1.6c-0.5,0.4-1.2,0.7-1.8,0.9
				c-0.7,0.2-1.4,0.3-2.2,0.3c-1.2,0-2.4-0.3-3.5-0.9c-1-0.6-1.8-1.7-2.1-2.8L92.7,82z"/>
			<path id="Trazado_111" class="st2" d="M67.2,76.9h3.9V73h1.3v3.9h3.9v1.3h-3.9v3.9h-1.3v-3.9h-3.9V76.9z"/>
		</g>
	</g>
</g>
</svg>
