<svg enable-background="new 0 0 142 142" viewBox="0 0 142 142" xmlns="http://www.w3.org/2000/svg" xmlns:xlink="http://www.w3.org/1999/xlink"><clipPath id="a"><path d="m28 4h86v134h-86z"/></clipPath><g clip-path="url(#a)"><g fill="#54171a"><path d="m76.2 66.4c0 7.9 2.3 19.4-5.8 24.2-1.8 1.1-4.1 1.5-5.2 3.5-1.4 2.5-.6 6.6-.6 9.3v12.8c0 3.9.8 8.8-.6 12.5-3.3 9.1-20.1 6.1-20.7-3.3-.6-9.1.2-18.4 0-27.6-.1-6.8-6.7-5.9-9.8-11.1-2-3.3-1.7-7.2-1.7-10.9 0-4.9 0-9.8 0-14.6 0-8-1-17.9 8.4-20.9 4.7-1.5 10.6-.6 15.5-.6 4.5 0 9.7-.7 13.9 1.5 9 4.7 6.6 16.8 6.6 25.2 0 2.5 3.9 2.5 3.9 0 0-8.4 1.9-18.7-4.4-25.5-6.1-6.7-15.6-5.2-23.8-5.2-8.4 0-17-.2-21.8 8-1.8 3.2-2.2 6.6-2.2 10.2v18.3c0 7.8-.7 16 6.4 21.1 1.7 1.2 4.1 1.7 5.1 3.7.9 1.9 0 7.4 0 9.5 0 6.3-.4 12.7 0 19 .9 15.3 26.4 17.3 28.9 2.1.9-5.7.2-12 .3-17.7 0-3 0-6.1 0-9.1 0-1.8-.4-3.1.7-4.6 1-1.4 2.7-1.8 4.1-2.8 8.7-6.1 6.7-17.7 6.7-26.9 0-2.6-3.9-2.6-3.9-.1"/><path d="m54.4 31.4c-4.9-.1-9.3-3.2-11.2-7.7-2.3-6 .7-12.7 6.7-15 3.3-1.3 7.1-1 10.1.9 4.2 2.5 6.4 7.2 5.7 12-1 5.5-5.7 9.6-11.3 9.8-2.5 0-2.5 3.9 0 3.9 6.7-.2 12.5-4.6 14.6-10.9 2.6-8.3-2-17.1-10.2-19.7-4.4-1.3-9-.7-12.8 1.5-5.6 3.4-8.5 9.9-7.2 16.4 1.7 7.3 8.1 12.6 15.6 12.7 2.5.1 2.5-3.8 0-3.9"/><path d="m114 77.4c0 15.6-12.6 28.2-28.2 28.2s-28.1-12.6-28.1-28.2 12.6-28.2 28.2-28.2c15.5.1 28.1 12.7 28.1 28.2"/></g><path d="m84 71.7-3.2 2.9-1.4-1.6 4.8-4h2.1v17.2h-2.3z" fill="#efbe94"/><path d="m92.7 82c.2.7.6 1.3 1.1 1.8.6.4 1.3.7 2.1.6.4 0 .9-.1 1.3-.2.4-.2.7-.4 1.1-.6.3-.3.6-.6.7-1 .2-.4.3-.8.3-1.3 0-.6-.1-1.2-.4-1.7-.3-.4-.7-.8-1.2-1s-1-.4-1.6-.4c-.6-.1-1.1-.1-1.7-.1v-2c.7 0 1.5 0 2.2-.2.5-.1.9-.3 1.3-.5.3-.2.5-.5.7-.9.1-.4.2-.8.2-1.1.1-.8-.3-1.6-.8-2.1-.6-.5-1.3-.7-2.1-.7-.6 0-1.2.2-1.7.5-.5.4-.9.9-1.2 1.5l-2.4-.8c.4-1 1.1-1.9 2.1-2.4s2-.8 3.1-.8c.7 0 1.4.1 2 .3s1.2.5 1.7.9.9.9 1.2 1.5c.3.7.4 1.4.4 2.1 0 .9-.3 1.7-.8 2.4s-1.3 1.2-2.1 1.5c.5.1 1 .3 1.4.5s.8.6 1.1 1 .5.8.7 1.3c.1.5.2 1 .2 1.5 0 .8-.1 1.5-.5 2.2-.3.6-.7 1.1-1.3 1.6-.5.4-1.2.7-1.8.9-.7.2-1.4.3-2.2.3-1.2 0-2.4-.3-3.5-.9-1-.6-1.8-1.7-2.1-2.8z" fill="#efbe94"/><path d="m67.2 76.9h3.9v-3.9h1.3v3.9h3.9v1.3h-3.9v3.9h-1.3v-3.9h-3.9z" fill="#efbe94"/></g></svg>