<svg enable-background="new 0 0 142 142" viewBox="0 0 142 142" xmlns="http://www.w3.org/2000/svg" xmlns:xlink="http://www.w3.org/1999/xlink"><clipPath id="a"><path d="m4 4h134v134h-134z"/></clipPath><g clip-path="url(#a)" fill="#54171a"><path d="m71 138c-37 0-67-30-67-67s30-67 67-67 67 30 67 67-30 67-67 67m0-129.2c-34.4 0-62.2 27.8-62.2 62.2s27.9 62.2 62.2 62.2c34.4 0 62.2-27.9 62.2-62.2s-27.8-62.2-62.2-62.2"/><path d="m86.3 70.1c0 5.3 1.5 12.9-3.8 16.1-1.2.8-2.8 1-3.5 2.4-.9 1.7-.4 4.5-.4 6.3v8.6c0 2.6.5 5.9-.4 8.4-2.2 5.9-13.2 4-13.6-2.2-.4-6.1.2-12.3 0-18.5-.1-4.6-4.5-4-6.6-7.5-1.3-2.2-1.1-4.8-1.1-7.3 0-3.3 0-6.5 0-9.8 0-5.3-.7-11.9 5.6-13.9 3.2-1 7.1-.4 10.4-.4 3 0 6.5-.5 9.2 1 5.8 3.1 4.2 11.3 4.2 16.8 0 .8.7 1.4 1.5 1.4s1.4-.6 1.4-1.4c0-5.6 1.2-12.6-3-17.1-4.1-4.5-10.5-3.5-16-3.5-5.7 0-11.5-.1-14.7 5.4-1.1 2.1-1.6 4.5-1.5 6.9v12.3c0 5.3-.4 10.8 4.4 14.2 1.1.8 2.7 1.1 3.3 2.4.6 1.2 0 5 0 6.4 0 4.2-.2 8.5 0 12.7.5 10.5 17.9 11.7 19.6 1.5.6-3.8.2-8 .2-11.9 0-2 0-4.1 0-6.1 0-1.2-.3-2.1.5-3 .7-.9 1.8-1.2 2.7-1.8 5.9-4.1 4.5-11.9 4.5-18.2 0-.8-.7-1.4-1.5-1.4-.7-.2-1.4.5-1.4 1.2"/><path d="m71.8 46.6c-3.2-.1-6.1-2.1-7.4-5.1-1.5-3.9.4-8.4 4.4-9.9 2.2-.8 4.7-.6 6.7.6 2.7 1.6 4.2 4.8 3.8 7.9-.7 3.6-3.8 6.3-7.5 6.5-1.8 0-1.9 2.9 0 2.9 4.5-.2 8.5-3.1 9.9-7.4 1.8-5.6-1.2-11.5-6.8-13.4s-11.5 1.2-13.4 6.8c-.6 1.7-.7 3.6-.3 5.3 1.1 5 5.5 8.5 10.6 8.6 1.8.1 1.8-2.8 0-2.8"/><path d="m80.7 67.7c0 5.6 1.5 13.4-4.2 16.8-1.1.7-2.6.9-3.3 2.1-.8 1.6-.3 4.3-.3 5.9v8.6c0 2.7.5 6-.4 8.6-2.4 6.7-14.6 4.6-15-2.4-.4-6.1.2-12.3 0-18.5-.1-4.3-4.5-3.8-6.5-7.2-1.4-2.3-1.2-5-1.2-7.6 0-3.3 0-6.5 0-9.8 0-5.7-.6-12.5 6.1-14.6 3.2-1 7.2-.4 10.5-.4 3.2 0 6.7-.5 9.6 1.1 6.2 3.3 4.7 11.5 4.7 17.4 0 .4.3.7.7.7s.7-.3.7-.7c0-5.4 1.3-12.3-2.7-16.6s-10.2-3.3-15.5-3.3c-5.4 0-11-.2-14.1 5.1-1 2-1.5 4.3-1.4 6.5v12.3c0 5-.5 10.3 4 13.6 1.3.9 3.1 1.3 3.7 3 .5 1.6 0 4.7 0 6.4 0 4.2-.2 8.5 0 12.7.6 9.6 16.7 10.8 18.2 1.3.6-3.8.1-7.9.1-11.7 0-2 0-4.1 0-6.1 0-1.4-.2-2.2.6-3.3s1.8-1.3 2.9-2.1c5.6-4 4.2-11.6 4.2-17.5 0-.4-.3-.7-.7-.7-.4-.4-.7 0-.7.4"/><path d="m65.4 44.8c-3.6-.1-6.7-2.3-8.1-5.6-1.6-4.3.6-9.2 4.9-10.8 2.4-.9 5-.7 7.2.6 3 1.8 4.6 5.3 4.1 8.7-.7 4-4 7-8.1 7.1-.4 0-.7.3-.7.7s.3.7.7.7c4.2-.2 7.9-2.9 9.2-6.9 1.2-3.9 0-8.1-3.2-10.7s-7.7-3-11.3-.8c-3.5 2.2-5.3 6.3-4.6 10.3 1 4.6 5.1 8 9.9 8.1.4 0 .7-.3.7-.7.1-.3-.3-.7-.7-.7"/><path d="m4.4 66.7h129.1v4.8h-129.1z" transform="matrix(.6796 -.7336 .7336 .6796 -28.5876 72.6838)"/></g></svg>