<?xml version="1.0" encoding="utf-8"?>
<!-- Generator: Adobe Illustrator 27.7.0, SVG Export Plug-In . SVG Version: 6.00 Build 0)  -->
<svg version="1.1" id="Capa_1" xmlns="http://www.w3.org/2000/svg" xmlns:xlink="http://www.w3.org/1999/xlink" x="0px" y="0px"
	 viewBox="0 0 142 142" style="enable-background:new 0 0 142 142;" xml:space="preserve">
<style type="text/css">
	.st0{clip-path:url(#SVGID_00000168799154619290263720000012969741298883515058_);}
	.st1{fill:#54171A;}
</style>
<g id="Grupo_82" transform="translate(0 0)">
	<g>
		<defs>
			<rect id="SVGID_1_" x="4" y="4" width="134" height="134"/>
		</defs>
		<clipPath id="SVGID_00000140721697352254452670000014343129065465440949_">
			<use xlink:href="#SVGID_1_"  style="overflow:visible;"/>
		</clipPath>
		
			<g id="Grupo_81" transform="translate(0 0)" style="clip-path:url(#SVGID_00000140721697352254452670000014343129065465440949_);">
			<path id="Trazado_131" class="st1" d="M71,138c-37,0-67-30-67-67S34,4,71,4c37,0,67,30,67,67C138,108,108,138,71,138 M71,8.8
				C36.6,8.8,8.8,36.6,8.8,71s27.9,62.2,62.2,62.2c34.4,0,62.2-27.9,62.2-62.2C133.2,36.7,105.4,8.8,71,8.8"/>
			<path id="Trazado_132" class="st1" d="M86.3,70.1c0,5.3,1.5,12.9-3.8,16.1c-1.2,0.8-2.8,1-3.5,2.4c-0.9,1.7-0.4,4.5-0.4,6.3
				c0,2.9,0,5.7,0,8.6c0,2.6,0.5,5.9-0.4,8.4c-2.2,5.9-13.2,4-13.6-2.2c-0.4-6.1,0.2-12.3,0-18.5c-0.1-4.6-4.5-4-6.6-7.5
				c-1.3-2.2-1.1-4.8-1.1-7.3c0-3.3,0-6.5,0-9.8c0-5.3-0.7-11.9,5.6-13.9c3.2-1,7.1-0.4,10.4-0.4c3,0,6.5-0.5,9.2,1
				C87.9,56.4,86.3,64.6,86.3,70.1c0,0.8,0.7,1.4,1.5,1.4c0.8,0,1.4-0.6,1.4-1.4c0-5.6,1.2-12.6-3-17.1c-4.1-4.5-10.5-3.5-16-3.5
				c-5.7,0-11.5-0.1-14.7,5.4c-1.1,2.1-1.6,4.5-1.5,6.9c0,4.1,0,8.2,0,12.3c0,5.3-0.4,10.8,4.4,14.2c1.1,0.8,2.7,1.1,3.3,2.4
				c0.6,1.2,0,5,0,6.4c0,4.2-0.2,8.5,0,12.7c0.5,10.5,17.9,11.7,19.6,1.5c0.6-3.8,0.2-8,0.2-11.9c0-2,0-4.1,0-6.1
				c0-1.2-0.3-2.1,0.5-3c0.7-0.9,1.8-1.2,2.7-1.8c5.9-4.1,4.5-11.9,4.5-18.2c0-0.8-0.7-1.4-1.5-1.4C87,68.7,86.3,69.4,86.3,70.1"/>
			<path id="Trazado_133" class="st1" d="M71.8,46.6c-3.2-0.1-6.1-2.1-7.4-5.1c-1.5-3.9,0.4-8.4,4.4-9.9c2.2-0.8,4.7-0.6,6.7,0.6
				c2.7,1.6,4.2,4.8,3.8,7.9C78.6,43.7,75.5,46.4,71.8,46.6c-1.8,0-1.9,2.9,0,2.9c4.5-0.2,8.5-3.1,9.9-7.4
				c1.8-5.6-1.2-11.5-6.8-13.4s-11.5,1.2-13.4,6.8c-0.6,1.7-0.7,3.6-0.3,5.3c1.1,5,5.5,8.5,10.6,8.6C73.6,49.5,73.6,46.6,71.8,46.6"
				/>
			<path id="Trazado_134" class="st1" d="M80.7,67.7c0,5.6,1.5,13.4-4.2,16.8c-1.1,0.7-2.6,0.9-3.3,2.1c-0.8,1.6-0.3,4.3-0.3,5.9
				c0,2.9,0,5.7,0,8.6c0,2.7,0.5,6-0.4,8.6c-2.4,6.7-14.6,4.6-15-2.4c-0.4-6.1,0.2-12.3,0-18.5C57.4,84.5,53,85,51,81.6
				c-1.4-2.3-1.2-5-1.2-7.6c0-3.3,0-6.5,0-9.8c0-5.7-0.6-12.5,6.1-14.6c3.2-1,7.2-0.4,10.5-0.4c3.2,0,6.7-0.5,9.6,1.1
				C82.2,53.6,80.7,61.8,80.7,67.7c0,0.4,0.3,0.7,0.7,0.7c0.4,0,0.7-0.3,0.7-0.7c0-5.4,1.3-12.3-2.7-16.6c-4-4.3-10.2-3.3-15.5-3.3
				c-5.4,0-11-0.2-14.1,5.1c-1,2-1.5,4.3-1.4,6.5c0,4.1,0,8.2,0,12.3c0,5-0.5,10.3,4,13.6c1.3,0.9,3.1,1.3,3.7,3
				c0.5,1.6,0,4.7,0,6.4c0,4.2-0.2,8.5,0,12.7c0.6,9.6,16.7,10.8,18.2,1.3c0.6-3.8,0.1-7.9,0.1-11.7c0-2,0-4.1,0-6.1
				c0-1.4-0.2-2.2,0.6-3.3c0.8-1.1,1.8-1.3,2.9-2.1c5.6-4,4.2-11.6,4.2-17.5c0-0.4-0.3-0.7-0.7-0.7C81,66.9,80.7,67.3,80.7,67.7"/>
			<path id="Trazado_135" class="st1" d="M65.4,44.8c-3.6-0.1-6.7-2.3-8.1-5.6c-1.6-4.3,0.6-9.2,4.9-10.8c2.4-0.9,5-0.7,7.2,0.6
				c3,1.8,4.6,5.3,4.1,8.7C72.8,41.7,69.5,44.7,65.4,44.8c-0.4,0-0.7,0.3-0.7,0.7c0,0.4,0.3,0.7,0.7,0.7c4.2-0.2,7.9-2.9,9.2-6.9
				c1.2-3.9,0-8.1-3.2-10.7c-3.2-2.6-7.7-3-11.3-0.8c-3.5,2.2-5.3,6.3-4.6,10.3c1,4.6,5.1,8,9.9,8.1c0.4,0,0.7-0.3,0.7-0.7
				C66.2,45.2,65.8,44.8,65.4,44.8"/>
			
				<rect id="Rectángulo_63" x="4.4" y="66.7" transform="matrix(0.6796 -0.7336 0.7336 0.6796 -28.5876 72.6838)" class="st1" width="129.1" height="4.8"/>
		</g>
	</g>
</g>
</svg>
