<svg enable-background="new 0 0 142 142" viewBox="0 0 142 142" xmlns="http://www.w3.org/2000/svg" xmlns:xlink="http://www.w3.org/1999/xlink"><clipPath id="a"><path d="m4 8.7h134v124.7h-134z"/></clipPath><g clip-path="url(#a)" fill="#54171a"><path d="m32.2 38.9c0 5.1.1 10.3 0 15.4.1 1.7-.4 3.3-1.3 4.7-1.3 1.8-4.1 2-5.1 4.1-1 2-.3 5.3-.3 7.5 0 3.5.2 7 0 10.5-.2 3.3-2.2 4.5-5.3 4.8-1.3.2-2.7-.1-3.9-.6-2.3-1.2-2.5-3.3-2.5-5.6 0-3.5 0-7 0-10.5 0-2.1.7-5.4-1.1-7-1.7-1.6-3.9-1.6-5-4-1.3-2.8-.6-6.8-.6-9.8 0-5.3-1.8-14.3 5-16.1 2.9-.8 6.6-.2 9.6-.2h3.4c3.9-.2 7.1 2.9 7.1 6.8.1 1.9 3.1 1.9 3 0 0-5.5-4.5-10-10-10-3.4-.1-6.9 0-10.3 0-4.4.1-8.5 2-10.1 6.5-1 3-.6 6.6-.6 9.7 0 3.9-.6 8.3.2 12.2.4 2.2 1.7 4.1 3.4 5.4.6.5 1.2.7 1.8 1.1 1.2.8 1 .5 1.2 2 .4 2.4 0 5.2 0 7.7 0 5.9-1.1 13.7 6.6 15.1 4.9.9 10.3-1.1 11-6.5.5-3.9.1-8.1.1-12.1 0-1.3-.6-4.2 0-5.3.6-1.3 3.1-2.1 4.2-3.2 3-3.2 2.5-7.7 2.5-11.8v-10.8c0-.8-.7-1.5-1.5-1.5-.9.1-1.5.7-1.5 1.5"/><path d="m19.9 25.1c-2.7-.1-5.1-1.7-6.1-4.2-1.3-3.3.3-7 3.6-8.3 1.8-.7 3.9-.6 5.6.5 2.3 1.4 3.5 3.9 3.1 6.6-.6 3-3.2 5.3-6.2 5.4-1.9 0-1.9 3 0 3 4-.1 7.5-2.8 8.8-6.6 1.6-5-1.2-10.3-6.2-11.8-2.6-.8-5.3-.5-7.6.9-3.4 2.1-5.1 6-4.4 9.9 1 4.4 4.9 7.6 9.4 7.7 1.9 0 1.9-3 0-3.1"/><path d="m53.8 38.9v12.4c.1 1.8.1 3.6-.2 5.3-.6 2.5-2.2 3.5-4.3 4.7-1.1.5-1.9 1.4-2.1 2.6-.5 2.2 0 4.9 0 7.2v7.9c0 2.1.2 4.6-1.8 5.9-2.1 1.1-4.6 1.3-6.8.5-3.4-1.3-3-4.4-3-7.5 0-2.8 0-5.5 0-8.3 0-2 .6-4.7-.3-6.5-.7-1.6-2.6-2-4-2.9.1.8.2 1.6.3 2.3 4.8-3.7 3.7-10.4 3.7-15.7 0-5.5 1-11.8-3.7-15.8-.1.8-.2 1.6-.3 2.3 3.3-2.4 8.3-1.6 12.2-1.6 1.4-.1 2.8-.1 4.1 0 3.5.6 6.2 3.6 6.2 7.2.1 1.9 3.1 1.9 3 0-.3-6.7-5.3-10-11.5-10-4.9 0-11.3-1.1-15.5 2-.7.4-.9 1.4-.5 2.1.1.1.1.2.2.3 3.8 3.2 2.8 9.1 2.8 13.7 0 4.4 1.1 10.6-2.8 13.6-.6.6-.6 1.6 0 2.1.1.1.2.2.3.2.8.4 1.6.8 2.4 1.3.8.8.5 2.2.5 3.3v7.7c0 3.5-.8 7.9 1.7 10.8 3.6 4.1 12.5 4.1 15.1-1.1 1.5-3.1.8-7.2.8-10.5 0-2.3 0-4.6 0-6.9 0-1.5-.3-2.6 1-3.6.5-.4 1.2-.6 1.8-1 3.8-2.8 3.9-7 3.9-11.3v-12.7c0-.8-.7-1.5-1.5-1.5-1.1.1-1.7.7-1.7 1.5"/><path d="m41.5 25.1c-2.7-.1-5.1-1.7-6.1-4.2-1.3-3.3.3-7 3.6-8.3 1.8-.7 3.9-.6 5.6.5 2.3 1.4 3.5 3.9 3.1 6.6-.6 3-3.2 5.3-6.2 5.4-1.9 0-1.9 3 0 3 4-.1 7.5-2.8 8.8-6.6 1.6-4.9-1.1-10.3-6-11.9s-10.3 1.1-11.9 6c-.5 1.5-.6 3.2-.3 4.8 1 4.4 4.9 7.6 9.4 7.7 1.9.1 1.9-2.9 0-3"/><path d="m13.7 101.1h39.9c.6 0 1-.5 1-1s-.4-.9-1-1h-39.9c-.6 0-1 .5-1 1 .1.6.5 1 1 1"/><path d="m25.8 118-3.3 3-1.4-1.7 4.9-4.1h2.1v17.8h-2.4v-15z"/><path d="m44.8 117.5h-7.2l-.1 4.4c.2-.1.3-.1.5-.1.2-.1.4-.1.7-.1s.4-.1.7-.1h.6c.8 0 1.6.1 2.3.4s1.3.7 1.7 1.2c.5.5.9 1.2 1.1 1.9.3.8.4 1.6.4 2.4s-.2 1.7-.5 2.4-.8 1.3-1.3 1.9c-.6.5-1.3.9-2 1.2-.8.3-1.6.4-2.4.4-1.2 0-2.3-.3-3.3-.9s-1.7-1.6-2.1-2.7l2.4-.8c.2.7.7 1.3 1.3 1.8.6.4 1.3.6 2 .5.5 0 .9-.1 1.3-.2.4-.2.8-.4 1.1-.7s.6-.7.7-1.1c.2-.5.3-1 .3-1.5.1-1.1-.4-2.2-1.2-2.9-.9-.7-2-1-3.1-1-.6 0-1.2.1-1.7.2-.7.2-1.3.4-1.9.7l.2-9.4h9.5z"/><path d="m113.4 38.3c0 5.1.1 10.3 0 15.4.1 1.7-.4 3.3-1.3 4.7-1.3 1.8-4.1 2-5.1 4.1-1 2-.3 5.3-.3 7.5 0 3.5.2 7 0 10.5-.2 3.3-2.2 4.5-5.3 4.8-1.3.2-2.7-.1-3.9-.6-2.3-1.2-2.5-3.3-2.5-5.6 0-3.5 0-7 0-10.5 0-2.1.7-5.4-1.1-7-1.7-1.6-3.9-1.6-5-4-1.3-2.8-.6-6.8-.6-9.8 0-5.3-1.8-14.3 5-16.1 2.9-.8 6.6-.2 9.6-.2h3.4c4-.2 7.1 2.9 7.1 6.8.1 1.9 3.1 1.9 3 0 0-5.5-4.5-10-10-10-3.4-.1-6.9 0-10.3 0-4.4.1-8.5 2-10.1 6.5-1 3-.6 6.6-.6 9.7 0 3.9-.6 8.3.2 12.2.4 2.2 1.7 4.1 3.4 5.4.6.5 1.2.7 1.8 1.1 1.2.8 1 .5 1.2 2 .4 2.4 0 5.2 0 7.7 0 5.9-1.1 13.8 6.6 15.1 4.9.9 10.3-1.1 11-6.5.5-3.9.1-8.1.1-12.1 0-1.3-.6-4.2 0-5.3.6-1.3 3.1-2.1 4.2-3.2 3-3.2 2.5-7.7 2.5-11.8v-10.8c0-.8-.7-1.5-1.5-1.5-.8.1-1.5.7-1.5 1.5"/><path d="m101.1 24.6c-2.7-.1-5.1-1.7-6.1-4.2-1.3-3.3.3-7 3.6-8.3 1.8-.7 3.9-.6 5.6.5 2.3 1.4 3.5 3.9 3.1 6.6-.6 2.9-3.1 5.2-6.2 5.4-1.9 0-1.9 3 0 3 4-.1 7.5-2.8 8.8-6.6 1.6-4.9-1.1-10.3-6-11.9s-10.3 1.1-11.9 6c-.5 1.5-.6 3.2-.3 4.8 1 4.4 4.9 7.6 9.4 7.7 1.9 0 1.9-3 0-3"/><path d="m135 38.3v12.4c.1 1.8.1 3.6-.2 5.3-.6 2.5-2.2 3.5-4.3 4.7-1.1.5-1.9 1.4-2.1 2.6-.5 2.2 0 4.9 0 7.2v7.9c0 2.1.2 4.6-1.8 5.9-2.1 1.1-4.6 1.3-6.8.5-3.4-1.3-3-4.4-3-7.5 0-2.8 0-5.5 0-8.3 0-2 .6-4.7-.3-6.5-.7-1.6-2.6-2-4-2.9.1.8.2 1.6.3 2.3 4.8-3.7 3.7-10.4 3.7-15.7 0-5.5 1-11.8-3.7-15.8-.1.8-.2 1.6-.3 2.3 3.3-2.4 8.3-1.6 12.2-1.6 1.4-.1 2.8-.1 4.1 0 3.5.6 6.2 3.6 6.2 7.2.1 1.9 3.1 1.9 3 0-.3-6.7-5.3-10-11.5-10-4.9 0-11.3-1.1-15.5 2-.7.4-.9 1.4-.5 2.1.1.1.1.2.2.3 3.8 3.2 2.8 9.1 2.8 13.7 0 4.4 1.1 10.6-2.8 13.6-.6.6-.6 1.6 0 2.1.1.1.2.2.3.2.8.4 1.6.8 2.4 1.3.8.8.5 2.2.5 3.3v7.7c0 3.5-.8 7.9 1.7 10.8 3.6 4.1 12.5 4.1 15.1-1.1 1.5-3.1.8-7.2.8-10.5 0-2.3 0-4.6 0-6.9 0-1.5-.3-2.6 1-3.6.5-.4 1.2-.6 1.8-1 3.8-2.8 3.9-7 3.9-11.3v-12.7c0-.8-.7-1.5-1.5-1.5-1 .1-1.7.7-1.7 1.5"/><path d="m122.7 24.6c-2.7-.1-5.1-1.7-6.1-4.2-1.3-3.3.3-7 3.6-8.3 1.8-.7 3.9-.6 5.6.5 2.3 1.4 3.5 3.9 3.1 6.6-.6 2.9-3.1 5.2-6.2 5.4-1.9 0-1.9 3 0 3 4-.1 7.5-2.8 8.8-6.6 1.6-4.9-1.1-10.3-6-11.9s-10.3 1.1-11.9 6c-.5 1.5-.6 3.2-.3 4.8 1 4.4 4.9 7.6 9.4 7.7 1.9 0 1.9-3 0-3"/><path d="m95 100.5h39.9c.6 0 1-.5 1-1s-.4-.9-1-1h-39.9c-.6 0-1 .5-1 1 0 .6.4 1 1 1"/><path d="m107 117.5-3.3 3-1.4-1.7 4.9-4.1h2.1v17.8h-2.3z"/><path d="m126 116.9h-7.2l-.1 4.4c.2-.1.3-.1.5-.1.2-.1.4-.1.7-.1.2 0 .4-.1.7-.1h.6c.8 0 1.6.1 2.3.4s1.3.7 1.7 1.2c.5.5.9 1.2 1.1 1.9.3.8.4 1.6.4 2.4s-.2 1.7-.5 2.4-.8 1.3-1.3 1.9c-.6.5-1.3.9-2 1.2-.8.3-1.6.4-2.4.4-1.2 0-2.3-.3-3.3-.9s-1.7-1.6-2.1-2.7l2.4-.8c.4 1.5 1.8 2.4 3.3 2.3.5 0 .9-.1 1.3-.3s.8-.4 1.1-.7.6-.7.7-1.1c.2-.5.3-1 .3-1.5.1-1.1-.4-2.2-1.2-2.9-.9-.7-2-1-3.1-1-.6 0-1.2.1-1.7.2-.7.2-1.3.4-1.9.7l.2-9.4h9.5z"/><path d="m63.6 45.2h5.7v-5.7h2v5.7h5.7v2h-5.7v5.7h-2v-5.7h-5.7z"/></g></svg>