<?xml version="1.0" encoding="utf-8"?>
<!-- Generator: Adobe Illustrator 27.7.0, SVG Export Plug-In . SVG Version: 6.00 Build 0)  -->
<svg version="1.1" id="Capa_1" xmlns="http://www.w3.org/2000/svg" xmlns:xlink="http://www.w3.org/1999/xlink" x="0px" y="0px"
	 viewBox="0 0 142 142" style="enable-background:new 0 0 142 142;" xml:space="preserve">
<style type="text/css">
	.st0{clip-path:url(#SVGID_00000093172148185690947030000000970054410420305321_);}
	.st1{fill:#54171A;}
</style>
<g id="Grupo_80" transform="translate(0.001)">
	<g>
		<defs>
			<rect id="SVGID_1_" x="4" y="8.7" width="134" height="124.7"/>
		</defs>
		<clipPath id="SVGID_00000007422308544517369680000016598855432149074845_">
			<use xlink:href="#SVGID_1_"  style="overflow:visible;"/>
		</clipPath>
		
			<g id="Grupo_79" transform="translate(-0.001 0)" style="clip-path:url(#SVGID_00000007422308544517369680000016598855432149074845_);">
			<path id="Trazado_116" class="st1" d="M32.2,38.9c0,5.1,0.1,10.3,0,15.4c0.1,1.7-0.4,3.3-1.3,4.7c-1.3,1.8-4.1,2-5.1,4.1
				c-1,2-0.3,5.3-0.3,7.5c0,3.5,0.2,7,0,10.5c-0.2,3.3-2.2,4.5-5.3,4.8c-1.3,0.2-2.7-0.1-3.9-0.6c-2.3-1.2-2.5-3.3-2.5-5.6
				c0-3.5,0-7,0-10.5c0-2.1,0.7-5.4-1.1-7c-1.7-1.6-3.9-1.6-5-4c-1.3-2.8-0.6-6.8-0.6-9.8c0-5.3-1.8-14.3,5-16.1
				c2.9-0.8,6.6-0.2,9.6-0.2c1.1,0,2.3,0,3.4,0C29,31.9,32.2,35,32.2,38.9C32.2,38.9,32.2,38.9,32.2,38.9c0.1,1.9,3.1,1.9,3,0
				c0-5.5-4.5-10-10-10c-3.4-0.1-6.9,0-10.3,0c-4.4,0.1-8.5,2-10.1,6.5c-1,3-0.6,6.6-0.6,9.7c0,3.9-0.6,8.3,0.2,12.2
				c0.4,2.2,1.7,4.1,3.4,5.4c0.6,0.5,1.2,0.7,1.8,1.1c1.2,0.8,1,0.5,1.2,2c0.4,2.4,0,5.2,0,7.7c0,5.9-1.1,13.7,6.6,15.1
				c4.9,0.9,10.3-1.1,11-6.5c0.5-3.9,0.1-8.1,0.1-12.1c0-1.3-0.6-4.2,0-5.3c0.6-1.3,3.1-2.1,4.2-3.2c3-3.2,2.5-7.7,2.5-11.8V38.9
				c0-0.8-0.7-1.5-1.5-1.5C32.8,37.5,32.2,38.1,32.2,38.9"/>
			<path id="Trazado_117" class="st1" d="M19.9,25.1c-2.7-0.1-5.1-1.7-6.1-4.2c-1.3-3.3,0.3-7,3.6-8.3c1.8-0.7,3.9-0.6,5.6,0.5
				c2.3,1.4,3.5,3.9,3.1,6.6C25.5,22.7,22.9,25,19.9,25.1c-1.9,0-1.9,3,0,3c4-0.1,7.5-2.8,8.8-6.6c1.6-5-1.2-10.3-6.2-11.8
				c-2.6-0.8-5.3-0.5-7.6,0.9c-3.4,2.1-5.1,6-4.4,9.9c1,4.4,4.9,7.6,9.4,7.7C21.8,28.2,21.8,25.2,19.9,25.1"/>
			<path id="Trazado_118" class="st1" d="M53.8,38.9v12.4c0.1,1.8,0.1,3.6-0.2,5.3c-0.6,2.5-2.2,3.5-4.3,4.7
				c-1.1,0.5-1.9,1.4-2.1,2.6c-0.5,2.2,0,4.9,0,7.2c0,2.6,0,5.3,0,7.9c0,2.1,0.2,4.6-1.8,5.9c-2.1,1.1-4.6,1.3-6.8,0.5
				c-3.4-1.3-3-4.4-3-7.5c0-2.8,0-5.5,0-8.3c0-2,0.6-4.7-0.3-6.5c-0.7-1.6-2.6-2-4-2.9c0.1,0.8,0.2,1.6,0.3,2.3
				c4.8-3.7,3.7-10.4,3.7-15.7c0-5.5,1-11.8-3.7-15.8c-0.1,0.8-0.2,1.6-0.3,2.3c3.3-2.4,8.3-1.6,12.2-1.6c1.4-0.1,2.8-0.1,4.1,0
				C51.1,32.3,53.8,35.3,53.8,38.9c0.1,1.9,3.1,1.9,3,0c-0.3-6.7-5.3-10-11.5-10c-4.9,0-11.3-1.1-15.5,2c-0.7,0.4-0.9,1.4-0.5,2.1
				c0.1,0.1,0.1,0.2,0.2,0.3c3.8,3.2,2.8,9.1,2.8,13.7c0,4.4,1.1,10.6-2.8,13.6c-0.6,0.6-0.6,1.6,0,2.1c0.1,0.1,0.2,0.2,0.3,0.2
				c0.8,0.4,1.6,0.8,2.4,1.3c0.8,0.8,0.5,2.2,0.5,3.3c0,2.6,0,5.1,0,7.7c0,3.5-0.8,7.9,1.7,10.8c3.6,4.1,12.5,4.1,15.1-1.1
				c1.5-3.1,0.8-7.2,0.8-10.5c0-2.3,0-4.6,0-6.9c0-1.5-0.3-2.6,1-3.6c0.5-0.4,1.2-0.6,1.8-1c3.8-2.8,3.9-7,3.9-11.3V38.9
				c0-0.8-0.7-1.5-1.5-1.5C54.4,37.5,53.8,38.1,53.8,38.9"/>
			<path id="Trazado_119" class="st1" d="M41.5,25.1c-2.7-0.1-5.1-1.7-6.1-4.2c-1.3-3.3,0.3-7,3.6-8.3c1.8-0.7,3.9-0.6,5.6,0.5
				c2.3,1.4,3.5,3.9,3.1,6.6C47.1,22.7,44.5,25,41.5,25.1c-1.9,0-1.9,3,0,3c4-0.1,7.5-2.8,8.8-6.6c1.6-4.9-1.1-10.3-6-11.9
				s-10.3,1.1-11.9,6c-0.5,1.5-0.6,3.2-0.3,4.8c1,4.4,4.9,7.6,9.4,7.7C43.4,28.2,43.4,25.2,41.5,25.1"/>
			<path id="Trazado_120" class="st1" d="M13.7,101.1h39.9c0.6,0,1-0.5,1-1c0-0.5-0.4-0.9-1-1H13.7c-0.6,0-1,0.5-1,1
				C12.8,100.7,13.2,101.1,13.7,101.1"/>
			<path id="Trazado_121" class="st1" d="M25.8,118l-3.3,3l-1.4-1.7l4.9-4.1h2.1V133h-2.4V118z"/>
			<path id="Trazado_122" class="st1" d="M44.8,117.5h-7.2l-0.1,4.4c0.2-0.1,0.3-0.1,0.5-0.1c0.2-0.1,0.4-0.1,0.7-0.1
				s0.4-0.1,0.7-0.1c0.2,0,0.4,0,0.6,0c0.8,0,1.6,0.1,2.3,0.4c0.7,0.3,1.3,0.7,1.7,1.2c0.5,0.5,0.9,1.2,1.1,1.9
				c0.3,0.8,0.4,1.6,0.4,2.4c0,0.8-0.2,1.7-0.5,2.4c-0.3,0.7-0.8,1.3-1.3,1.9c-0.6,0.5-1.3,0.9-2,1.2c-0.8,0.3-1.6,0.4-2.4,0.4
				c-1.2,0-2.3-0.3-3.3-0.9c-1-0.6-1.7-1.6-2.1-2.7l2.4-0.8c0.2,0.7,0.7,1.3,1.3,1.8c0.6,0.4,1.3,0.6,2,0.5c0.5,0,0.9-0.1,1.3-0.2
				c0.4-0.2,0.8-0.4,1.1-0.7c0.3-0.3,0.6-0.7,0.7-1.1c0.2-0.5,0.3-1,0.3-1.5c0.1-1.1-0.4-2.2-1.2-2.9c-0.9-0.7-2-1-3.1-1
				c-0.6,0-1.2,0.1-1.7,0.2c-0.7,0.2-1.3,0.4-1.9,0.7l0.2-9.4h9.5L44.8,117.5z"/>
			<path id="Trazado_123" class="st1" d="M113.4,38.3c0,5.1,0.1,10.3,0,15.4c0.1,1.7-0.4,3.3-1.3,4.7c-1.3,1.8-4.1,2-5.1,4.1
				c-1,2-0.3,5.3-0.3,7.5c0,3.5,0.2,7,0,10.5c-0.2,3.3-2.2,4.5-5.3,4.8c-1.3,0.2-2.7-0.1-3.9-0.6c-2.3-1.2-2.5-3.3-2.5-5.6
				c0-3.5,0-7,0-10.5c0-2.1,0.7-5.4-1.1-7c-1.7-1.6-3.9-1.6-5-4c-1.3-2.8-0.6-6.8-0.6-9.8c0-5.3-1.8-14.3,5-16.1
				c2.9-0.8,6.6-0.2,9.6-0.2c1.1,0,2.3,0,3.4,0C110.3,31.3,113.4,34.4,113.4,38.3C113.4,38.3,113.4,38.3,113.4,38.3
				c0.1,1.9,3.1,1.9,3,0c0-5.5-4.5-10-10-10c-3.4-0.1-6.9,0-10.3,0c-4.4,0.1-8.5,2-10.1,6.5c-1,3-0.6,6.6-0.6,9.7
				c0,3.9-0.6,8.3,0.2,12.2c0.4,2.2,1.7,4.1,3.4,5.4c0.6,0.5,1.2,0.7,1.8,1.1c1.2,0.8,1,0.5,1.2,2c0.4,2.4,0,5.2,0,7.7
				c0,5.9-1.1,13.8,6.6,15.1c4.9,0.9,10.3-1.1,11-6.5c0.5-3.9,0.1-8.1,0.1-12.1c0-1.3-0.6-4.2,0-5.3c0.6-1.3,3.1-2.1,4.2-3.2
				c3-3.2,2.5-7.7,2.5-11.8V38.3c0-0.8-0.7-1.5-1.5-1.5C114.1,36.9,113.4,37.5,113.4,38.3"/>
			<path id="Trazado_124" class="st1" d="M101.1,24.6c-2.7-0.1-5.1-1.7-6.1-4.2c-1.3-3.3,0.3-7,3.6-8.3c1.8-0.7,3.9-0.6,5.6,0.5
				c2.3,1.4,3.5,3.9,3.1,6.6C106.7,22.1,104.2,24.4,101.1,24.6c-1.9,0-1.9,3,0,3c4-0.1,7.5-2.8,8.8-6.6c1.6-4.9-1.1-10.3-6-11.9
				c-4.9-1.6-10.3,1.1-11.9,6c-0.5,1.5-0.6,3.2-0.3,4.8c1,4.4,4.9,7.6,9.4,7.7C103,27.6,103,24.6,101.1,24.6"/>
			<path id="Trazado_125" class="st1" d="M135,38.3v12.4c0.1,1.8,0.1,3.6-0.2,5.3c-0.6,2.5-2.2,3.5-4.3,4.7
				c-1.1,0.5-1.9,1.4-2.1,2.6c-0.5,2.2,0,4.9,0,7.2c0,2.6,0,5.3,0,7.9c0,2.1,0.2,4.6-1.8,5.9c-2.1,1.1-4.6,1.3-6.8,0.5
				c-3.4-1.3-3-4.4-3-7.5c0-2.8,0-5.5,0-8.3c0-2,0.6-4.7-0.3-6.5c-0.7-1.6-2.6-2-4-2.9c0.1,0.8,0.2,1.6,0.3,2.3
				c4.8-3.7,3.7-10.4,3.7-15.7c0-5.5,1-11.8-3.7-15.8c-0.1,0.8-0.2,1.6-0.3,2.3c3.3-2.4,8.3-1.6,12.2-1.6c1.4-0.1,2.8-0.1,4.1,0
				C132.3,31.7,135,34.7,135,38.3c0.1,1.9,3.1,1.9,3,0c-0.3-6.7-5.3-10-11.5-10c-4.9,0-11.3-1.1-15.5,2c-0.7,0.4-0.9,1.4-0.5,2.1
				c0.1,0.1,0.1,0.2,0.2,0.3c3.8,3.2,2.8,9.1,2.8,13.7c0,4.4,1.1,10.6-2.8,13.6c-0.6,0.6-0.6,1.6,0,2.1c0.1,0.1,0.2,0.2,0.3,0.2
				c0.8,0.4,1.6,0.8,2.4,1.3c0.8,0.8,0.5,2.2,0.5,3.3c0,2.6,0,5.1,0,7.7c0,3.5-0.8,7.9,1.7,10.8c3.6,4.1,12.5,4.1,15.1-1.1
				c1.5-3.1,0.8-7.2,0.8-10.5c0-2.3,0-4.6,0-6.9c0-1.5-0.3-2.6,1-3.6c0.5-0.4,1.2-0.6,1.8-1c3.8-2.8,3.9-7,3.9-11.3V38.3
				c0-0.8-0.7-1.5-1.5-1.5C135.7,36.9,135,37.5,135,38.3"/>
			<path id="Trazado_126" class="st1" d="M122.7,24.6c-2.7-0.1-5.1-1.7-6.1-4.2c-1.3-3.3,0.3-7,3.6-8.3c1.8-0.7,3.9-0.6,5.6,0.5
				c2.3,1.4,3.5,3.9,3.1,6.6C128.3,22.1,125.8,24.4,122.7,24.6c-1.9,0-1.9,3,0,3c4-0.1,7.5-2.8,8.8-6.6c1.6-4.9-1.1-10.3-6-11.9
				s-10.3,1.1-11.9,6c-0.5,1.5-0.6,3.2-0.3,4.8c1,4.4,4.9,7.6,9.4,7.7C124.6,27.6,124.6,24.6,122.7,24.6"/>
			<path id="Trazado_127" class="st1" d="M95,100.5h39.9c0.6,0,1-0.5,1-1c0-0.5-0.4-0.9-1-1H95c-0.6,0-1,0.5-1,1
				C94,100.1,94.4,100.5,95,100.5"/>
			<path id="Trazado_128" class="st1" d="M107,117.5l-3.3,3l-1.4-1.7l4.9-4.1h2.1v17.8H107L107,117.5z"/>
			<path id="Trazado_129" class="st1" d="M126,116.9h-7.2l-0.1,4.4c0.2-0.1,0.3-0.1,0.5-0.1c0.2-0.1,0.4-0.1,0.7-0.1
				c0.2,0,0.4-0.1,0.7-0.1c0.2,0,0.4,0,0.6,0c0.8,0,1.6,0.1,2.3,0.4c0.7,0.3,1.3,0.7,1.7,1.2c0.5,0.5,0.9,1.2,1.1,1.9
				c0.3,0.8,0.4,1.6,0.4,2.4c0,0.8-0.2,1.7-0.5,2.4c-0.3,0.7-0.8,1.3-1.3,1.9c-0.6,0.5-1.3,0.9-2,1.2c-0.8,0.3-1.6,0.4-2.4,0.4
				c-1.2,0-2.3-0.3-3.3-0.9c-1-0.6-1.7-1.6-2.1-2.7l2.4-0.8c0.4,1.5,1.8,2.4,3.3,2.3c0.5,0,0.9-0.1,1.3-0.3c0.4-0.2,0.8-0.4,1.1-0.7
				c0.3-0.3,0.6-0.7,0.7-1.1c0.2-0.5,0.3-1,0.3-1.5c0.1-1.1-0.4-2.2-1.2-2.9c-0.9-0.7-2-1-3.1-1c-0.6,0-1.2,0.1-1.7,0.2
				c-0.7,0.2-1.3,0.4-1.9,0.7l0.2-9.4h9.5L126,116.9z"/>
			<path id="Trazado_130" class="st1" d="M63.6,45.2h5.7v-5.7h2v5.7H77v2h-5.7v5.7h-2v-5.7h-5.7V45.2z"/>
		</g>
	</g>
</g>
</svg>
