<svg xmlns="http://www.w3.org/2000/svg" xmlns:xlink="http://www.w3.org/1999/xlink" width="135.885" height="172.865" viewBox="0 0 135.885 172.865">
  <defs>
    <clipPath id="clip-path">
      <rect id="Rectángulo_72" data-name="Rectángulo 72" width="135.885" height="172.865" fill="none"/>
    </clipPath>
  </defs>
  <g id="Grupo_104" data-name="Grupo 104" clip-path="url(#clip-path)">
    <path id="Trazado_138" data-name="Trazado 138" d="M76.785,167.993c-.125.239-.2.363-.261.5-1.285,3.052-3.948,4.029-6.923,2.578a3.738,3.738,0,0,1-2.084-3.6,69.625,69.625,0,0,1,.1-7.91c.616-6.565,1.448-13.11,2.128-19.667.433-4.156.741-8.324,1.115-12.483q.683-7.55,1.385-15.1c.053-.58.117-1.16.2-1.973-.683-.042-1.3-.1-1.92-.114-7.841-.144-15.688-.2-23.526-.469-2.916-.1-5.81-.73-8.723-1.057-2.014-.228-4.04-.352-6.293-.541-.255,2.727-.508,5.186-.713,7.65-.868,10.355.086,20.638,1.143,30.926a46.545,46.545,0,0,1,.086,7.464c-.169,2.955-.893,3.59-3.821,4.09a8.559,8.559,0,0,0-.977.308c.289.9.6,1.706.807,2.536.419,1.659-.142,2.564-1.815,2.819a9.425,9.425,0,0,1-5.768-.932,4.716,4.716,0,0,1-2.345-3.538q-1.224-5.469-2.406-10.946c-1.323-6.085-2.852-12.133-3.909-18.263-1.6-9.237-2.877-18.529-4.262-27.8-.43-2.894-.769-5.8-1.16-8.784-1.335-.516-2.639-.991-3.918-1.523C1.09,91.391.2,90.226.253,88.769a3.807,3.807,0,0,1,3.163-3.482A23.6,23.6,0,0,1,6.9,84.8c6.24-.5,12.458.083,18.668.555,7.525.572,15.033,1.357,22.549,2.045,5.616.513,11.229,1.118,16.856,1.487,3.2.214,6.434.039,9.778.039.852-3.01,1.731-6.021,2.553-9.045,2.053-7.561,4.156-15.113,6.1-22.7A42.932,42.932,0,0,0,83.952,39.5a39.342,39.342,0,0,1-.305-12.261,14.655,14.655,0,0,1,.361-1.939,99.08,99.08,0,0,1,8.066-20.16,27.506,27.506,0,0,1,2.68-4.018C95.911-.3,97.567.078,98.078,1.843a6.175,6.175,0,0,1,.214,2.392c-.5,4.14-1.038,8.277-1.648,12.4-.408,2.752-.977,5.483-1.437,8.227-.128.771-.133,1.565-.219,2.616,1.082-.1,1.928-.239,2.777-.25,5.935-.086,11.873-.222,17.808-.183a27.56,27.56,0,0,1,9.459,1.82,24.793,24.793,0,0,1,4.894,2.439,9.889,9.889,0,0,1,4.5,6.989,21.631,21.631,0,0,1-.069,7.861c-.683,3.291-2.292,4.85-5.671,5.044a58.047,58.047,0,0,1-6.362-.161c-2.78-.147-5.552-.461-8.332-.527-2.628-.064-3.027.258-3.848,2.675a144.887,144.887,0,0,0-6.606,27.527c-1.121,8.352-1.87,16.75-2.744,25.135a14.687,14.687,0,0,1-3.724,8.959,6.126,6.126,0,0,0-1.143,2.059c-3.158,8.463-5.208,17.236-7.281,26.009-.771,3.274-1.884,6.468-2.816,9.706-1.013,3.518-2.073,7.025-2.969,10.574-1.06,4.2-1.609,4.72-6.071,4.836M96.3,1.751c-1.421.008-1.6,1.024-2,1.737C91.31,8.729,89.329,14.4,87.154,20.008a33.811,33.811,0,0,0-1.468,18.376,48.239,48.239,0,0,1-.771,21.351c-2.589,9.317-5.25,18.612-7.891,27.916a8.509,8.509,0,0,1-.638,1.631,2.085,2.085,0,0,1-1.914,1.249c-4.833.039-9.681.361-14.492.08-7.53-.441-15.036-1.315-22.555-1.951-6.72-.569-13.438-1.151-20.166-1.557-3.726-.225-7.472-.136-11.207-.1a7.327,7.327,0,0,0-2.766.6c-1.118.486-1.113,1.582-.036,2.164.835.452,1.756.733,2.625,1.124a5.1,5.1,0,0,1,3.438,4.645,52.574,52.574,0,0,0,.536,5.68c1.34,8.615,2.625,17.242,4.156,25.823,1.1,6.2,2.572,12.33,3.857,18.5.913,4.376,1.756,8.765,2.719,13.13a4.1,4.1,0,0,0,1.249,2.428,5.665,5.665,0,0,0,5.072.852c-.125-.491-.228-.9-.336-1.315-.658-2.547-1.457-5.066-1.942-7.647-.749-3.957-1.163-7.977-1.931-11.928-1.787-9.184-1.224-18.393-.508-27.608a7.637,7.637,0,0,1,4.29-6.254,10.2,10.2,0,0,1,5.691-1.4c3.8.244,7.586.638,11.379.963a265.628,265.628,0,0,0,28.778.88c.852-.019,1.706,0,2.747,0-.13,1.64-.219,3.019-.358,4.392-.347,3.424-.9,6.842-1.046,10.274-.455,10.713-1.987,21.3-3.435,31.9-.574,4.2-.7,8.463-.96,12.7a2.988,2.988,0,0,0,.5,2.031c1.287,1.382,4.115.594,4.62-1.207a23.561,23.561,0,0,0,.491-2.367,107.366,107.366,0,0,1,4.525-17.419c1.185-3.382,2.042-6.876,3.03-10.324q1.869-6.551,3.7-13.107a15.829,15.829,0,0,1,6.623-9.256c3.4-2.278,4.878-5.585,5.1-9.708a182.114,182.114,0,0,1,4.786-35.013c1.643-6.534,3.343-13.057,6.457-19.117a4.489,4.489,0,0,1,3.651-2.766,38.718,38.718,0,0,1,5.466-.239c2.414.089,4.814.458,7.228.566a26.208,26.208,0,0,0,4.37-.247,2.494,2.494,0,0,0,2.222-2.134,21.612,21.612,0,0,0,.314-8.077A8.318,8.318,0,0,0,128.41,32.7a13.927,13.927,0,0,0-2.539-1.293,38.352,38.352,0,0,0-15.53-2.339c-5.047.222-10.105.266-15.161.319C93.68,29.4,93.047,28.7,93,27.22a10.2,10.2,0,0,1,.2-1.962q1.5-8.882,3.019-17.766A14.663,14.663,0,0,0,96.3,1.751M26.92,156.234a8.963,8.963,0,0,0,1.326.23c2.056.031,2.4-.272,2.55-2.358a19.578,19.578,0,0,0,.022-3.072c-.394-4.517-.871-9.029-1.254-13.546a118.158,118.158,0,0,1,.05-23.018c.214-1.939.5-3.873.774-5.924a5.433,5.433,0,0,0-1.16.011c-3.285.816-4.853,2.675-4.986,6.315-.339,9.209-.952,18.415.824,27.585.877,4.512,1.246,9.123,1.853,13.776m50.018,9.625c3.133-.3,3.18-.339,3.76-2.841.363-1.57.685-3.149,1.118-4.7,1.77-6.346,3.7-12.65,5.333-19.028,1.787-6.956,3.518-13.912,6.42-20.516a4.217,4.217,0,0,0,.141-.927,8.232,8.232,0,0,0-4.192,4.8c-.83,2.345-1.626,4.706-2.353,7.084-2.611,8.54-5.244,17.072-7.741,25.646-.979,3.357-1.626,6.814-2.486,10.483" transform="translate(0.444 0.443)" fill="#efbe94"/>
    <path id="Trazado_139" data-name="Trazado 139" d="M76.785,167.993c-.125.239-.2.363-.261.5-1.285,3.052-3.948,4.029-6.923,2.578a3.738,3.738,0,0,1-2.084-3.6,69.625,69.625,0,0,1,.1-7.91c.616-6.565,1.448-13.11,2.128-19.667.433-4.156.741-8.324,1.115-12.483q.683-7.55,1.385-15.1c.053-.58.117-1.16.2-1.973-.683-.042-1.3-.1-1.92-.114-7.841-.144-15.688-.2-23.526-.469-2.916-.1-5.81-.73-8.723-1.057-2.014-.228-4.04-.352-6.293-.541-.255,2.727-.508,5.186-.713,7.65-.868,10.355.086,20.638,1.143,30.926a46.545,46.545,0,0,1,.086,7.464c-.169,2.955-.893,3.59-3.821,4.09a8.559,8.559,0,0,0-.977.308c.289.9.6,1.706.807,2.536.419,1.659-.142,2.564-1.815,2.819a9.425,9.425,0,0,1-5.768-.932,4.716,4.716,0,0,1-2.345-3.538q-1.224-5.469-2.406-10.946c-1.323-6.085-2.852-12.133-3.909-18.263-1.6-9.237-2.877-18.529-4.262-27.8-.43-2.894-.769-5.8-1.16-8.784-1.335-.516-2.639-.991-3.918-1.523C1.09,91.391.2,90.226.253,88.769a3.807,3.807,0,0,1,3.163-3.482A23.6,23.6,0,0,1,6.9,84.8c6.24-.5,12.458.083,18.668.555,7.525.572,15.033,1.357,22.549,2.045,5.616.513,11.229,1.118,16.856,1.487,3.2.214,6.434.039,9.778.039.852-3.01,1.731-6.021,2.553-9.045,2.053-7.561,4.156-15.113,6.1-22.7A42.932,42.932,0,0,0,83.952,39.5a39.342,39.342,0,0,1-.305-12.261,14.655,14.655,0,0,1,.361-1.939,99.08,99.08,0,0,1,8.066-20.16,27.506,27.506,0,0,1,2.68-4.018C95.911-.3,97.567.078,98.078,1.843a6.175,6.175,0,0,1,.214,2.392c-.5,4.14-1.038,8.277-1.648,12.4-.408,2.752-.977,5.483-1.437,8.227-.128.771-.133,1.565-.219,2.616,1.082-.1,1.928-.239,2.777-.25,5.935-.086,11.873-.222,17.808-.183a27.56,27.56,0,0,1,9.459,1.82,24.793,24.793,0,0,1,4.894,2.439,9.889,9.889,0,0,1,4.5,6.989,21.631,21.631,0,0,1-.069,7.861c-.683,3.291-2.292,4.85-5.671,5.044a58.047,58.047,0,0,1-6.362-.161c-2.78-.147-5.552-.461-8.332-.527-2.628-.064-3.027.258-3.848,2.675a144.887,144.887,0,0,0-6.606,27.527c-1.121,8.352-1.87,16.75-2.744,25.135a14.687,14.687,0,0,1-3.724,8.959,6.126,6.126,0,0,0-1.143,2.059c-3.158,8.463-5.208,17.236-7.281,26.009-.771,3.274-1.884,6.468-2.816,9.706-1.013,3.518-2.073,7.025-2.969,10.574C81.8,167.355,81.247,167.877,76.785,167.993ZM96.3,1.751c-1.421.008-1.6,1.024-2,1.737C91.31,8.729,89.329,14.4,87.154,20.008a33.811,33.811,0,0,0-1.468,18.376,48.239,48.239,0,0,1-.771,21.351c-2.589,9.317-5.25,18.612-7.891,27.916a8.509,8.509,0,0,1-.638,1.631,2.085,2.085,0,0,1-1.914,1.249c-4.833.039-9.681.361-14.492.08-7.53-.441-15.036-1.315-22.555-1.951-6.72-.569-13.438-1.151-20.166-1.557-3.726-.225-7.472-.136-11.207-.1a7.327,7.327,0,0,0-2.766.6c-1.118.486-1.113,1.582-.036,2.164.835.452,1.756.733,2.625,1.124a5.1,5.1,0,0,1,3.438,4.645,52.574,52.574,0,0,0,.536,5.68c1.34,8.615,2.625,17.242,4.156,25.823,1.1,6.2,2.572,12.33,3.857,18.5.913,4.376,1.756,8.765,2.719,13.13a4.1,4.1,0,0,0,1.249,2.428,5.665,5.665,0,0,0,5.072.852c-.125-.491-.228-.9-.336-1.315-.658-2.547-1.457-5.066-1.942-7.647-.749-3.957-1.163-7.977-1.931-11.928-1.787-9.184-1.224-18.393-.508-27.608a7.637,7.637,0,0,1,4.29-6.254,10.2,10.2,0,0,1,5.691-1.4c3.8.244,7.586.638,11.379.963a265.628,265.628,0,0,0,28.778.88c.852-.019,1.706,0,2.747,0-.13,1.64-.219,3.019-.358,4.392-.347,3.424-.9,6.842-1.046,10.274-.455,10.713-1.987,21.3-3.435,31.9-.574,4.2-.7,8.463-.96,12.7a2.988,2.988,0,0,0,.5,2.031c1.287,1.382,4.115.594,4.62-1.207a23.561,23.561,0,0,0,.491-2.367,107.366,107.366,0,0,1,4.525-17.419c1.185-3.382,2.042-6.876,3.03-10.324q1.869-6.551,3.7-13.107a15.829,15.829,0,0,1,6.623-9.256c3.4-2.278,4.878-5.585,5.1-9.708a182.114,182.114,0,0,1,4.786-35.013c1.643-6.534,3.343-13.057,6.457-19.117a4.489,4.489,0,0,1,3.651-2.766,38.718,38.718,0,0,1,5.466-.239c2.414.089,4.814.458,7.228.566a26.208,26.208,0,0,0,4.37-.247,2.494,2.494,0,0,0,2.222-2.134,21.612,21.612,0,0,0,.314-8.077A8.318,8.318,0,0,0,128.41,32.7a13.927,13.927,0,0,0-2.539-1.293,38.352,38.352,0,0,0-15.53-2.339c-5.047.222-10.105.266-15.161.319C93.68,29.4,93.047,28.7,93,27.22a10.2,10.2,0,0,1,.2-1.962q1.5-8.882,3.019-17.766A14.663,14.663,0,0,0,96.3,1.751ZM26.92,156.234a8.963,8.963,0,0,0,1.326.23c2.056.031,2.4-.272,2.55-2.358a19.578,19.578,0,0,0,.022-3.072c-.394-4.517-.871-9.029-1.254-13.546a118.158,118.158,0,0,1,.05-23.018c.214-1.939.5-3.873.774-5.924a5.433,5.433,0,0,0-1.16.011c-3.285.816-4.853,2.675-4.986,6.315-.339,9.209-.952,18.415.824,27.585C25.943,146.97,26.312,151.581,26.92,156.234Zm50.018,9.625c3.133-.3,3.18-.339,3.76-2.841.363-1.57.685-3.149,1.118-4.7,1.77-6.346,3.7-12.65,5.333-19.028,1.787-6.956,3.518-13.912,6.42-20.516a4.217,4.217,0,0,0,.141-.927,8.232,8.232,0,0,0-4.192,4.8c-.83,2.345-1.626,4.706-2.353,7.084-2.611,8.54-5.244,17.072-7.741,25.646C78.444,158.734,77.8,162.191,76.938,165.859Z" transform="translate(0.444 0.443)" fill="none" stroke="#efbe94" stroke-miterlimit="10" stroke-width="0.5"/>
    <path id="Trazado_140" data-name="Trazado 140" d="M39.781,21.409a7.7,7.7,0,0,1-5.78-2.5c-1.135-1.207-1.146-1.831-.072-3A10.119,10.119,0,0,1,45.86,14.158c2.192,1.312,2.414,2.7.7,4.614a7.751,7.751,0,0,1-6.776,2.636m-5.033-4.1c2.963,3.854,9.658,3.3,11.579-.963-4.023-2.755-8.432-2.389-11.579.963" transform="translate(58.805 22.974)" fill="#efbe94"/>
    <path id="Trazado_141" data-name="Trazado 141" d="M39.781,21.409a7.7,7.7,0,0,1-5.78-2.5c-1.135-1.207-1.146-1.831-.072-3A10.119,10.119,0,0,1,45.86,14.158c2.192,1.312,2.414,2.7.7,4.614A7.751,7.751,0,0,1,39.781,21.409Zm-5.033-4.1c2.963,3.854,9.658,3.3,11.579-.963C42.3,13.6,37.894,13.961,34.747,17.313Z" transform="translate(58.805 22.974)" fill="none" stroke="#efbe94" stroke-miterlimit="10" stroke-width="0.5"/>
  </g>
</svg>
