<svg xmlns="http://www.w3.org/2000/svg" xmlns:xlink="http://www.w3.org/1999/xlink" width="196.566" height="144.391" viewBox="0 0 196.566 144.391">
  <defs>
    <clipPath id="clip-path">
      <rect id="Rectángulo_74" data-name="Rectángulo 74" width="196.566" height="144.391" fill="none"/>
    </clipPath>
  </defs>
  <g id="Grupo_106" data-name="Grupo 106" clip-path="url(#clip-path)">
    <path id="Trazado_139" data-name="Trazado 139" d="M67.239,144.324c-8.068.652-14.32-3.631-20-8.259-14.231-11.595-26.711-24.941-34.434-41.8C6.129,79.686.641,64.572.009,48.239c-.18-4.661,2.306-7.02,7.026-7.007,4.6.012,9.178.187,13.789.648,9.824.984,19.282-.888,28.658-4.2A275.146,275.146,0,0,0,85.924,21.244c2.155-1.134,3.329-2.441,3.385-4.593.123-4.678,2.552-8.468,4.886-12.1C97.63-.79,104.268-1.373,110.315,2.5c5.07,3.246,9.718,7.09,15.171,9.811,9.192,4.587,18.905,6.931,29.007,8.418,11.432,1.683,22.87-.172,34.272.767,4.856.4,7.648,3.421,7.786,8.309.247,8.737-2.717,16.871-5.252,24.968-5.355,17.108-14.776,32.035-26.258,45.684-8.447,10.041-17.876,19.313-30.6,23.182-10.016,3.046-20.8,4.39-29.062-5.2-1.51-1.754-1.807-1.268-2.809.732-5.937,11.849-15.058,20.289-27.834,24.326-2.351.743-4.991.572-7.5.824M10.014,43.834C1.849,43.811.9,45.345,2.251,53.3c.522,3.082,1.459,6,2.172,8.989A150.038,150.038,0,0,0,15.977,94.018c7.88,15.951,19.708,28.71,33.329,39.89,5.454,4.476,11.593,7.635,18.894,7.213,12.121-.7,21.143-7.177,27.647-16.781,8.373-12.365,11.4-26.8,12-41.355.459-11.012-2.162-21.994-4.693-32.811a168.389,168.389,0,0,0-7.618-23.9c-1.227-3.082-2.212-5.763-6.876-3.144A223.515,223.515,0,0,1,59.707,37.281c-13.65,5.259-27.238,9.631-42.12,7.438-2.634-.388-5.223-1.292-7.572-.884M111.2,77.713c.688-.265,1.355-.5,2.006-.774,19.167-8.118,34.542,3.4,38.417,19.737.43,1.814.953,4.034-.95,5.378-2.06,1.456-3.556-.258-5.021-1.45-9.87-8.034-21.03-10.113-33.377-7.712-2.336.455-3.085,1.433-3.237,3.315a46.205,46.205,0,0,1-2.463,10.712c-1.04,3.173-2.114,6.206,1.128,9.7,6.721,7.249,17.389,7.01,25.521,4.178,13.7-4.773,23.275-14.857,32.074-25.739a129.473,129.473,0,0,0,23.5-43.123c2.08-6.7,4.129-13.551,4.2-20.707.053-5.134-1.848-7.024-6.9-7.031-5.66-.008-11.32.076-16.98.1-7.872.035-15.761.087-23.52-1.451-13.832-2.741-25.989-9.016-37.007-17.724-3.736-2.953-8.859-3.214-11.455-.445-3.146,3.356-4.757,7.7-6.1,12.061-.3.975-.551,2.34,1.217,1.985,2.489-.5,3.326,1.038,4.271,2.847a74.03,74.03,0,0,1,6.3,15.438c.578,2.2,1.641,2.941,4.121,3.488,6.735,1.488,12.857-.535,19.176-1.905,1.536-.333,3.476-2.217,4.771.1,1.162,2.08-.138,3.975-1.32,5.732-4.024,5.976-9.857,8.726-16.828,9.21-3.639.253-5.458,1.541-4.708,5.514,1.149,6.089,2.092,12.216,3.162,18.561m37.027,20.635a11.315,11.315,0,0,0-.025-2.61c-3.648-12.543-16.645-22.753-32.4-17.285-4.857,1.685-5.379,4.09-5.143,8.262.159,2.819.83,2.717,3.4,2.379,5.509-.727,11.063-1.091,16.655.649,6.183,1.925,11.72,4.99,17.521,8.606M104.333,41.5c.453,1.454.839,2.375,1.024,3.334,1.336,6.935,1.344,7.093,8.022,6.189,6.312-.856,11.358-3.836,15.214-10.547-8.522,2.148-16.03,4.389-24.26,1.024" transform="translate(0 0)" fill="#e1b38b"/>
    <path id="Trazado_140" data-name="Trazado 140" d="M95.453,195.833c-9.375-.276-16.087-6.008-21.558-13.447-1.39-1.89-.553-4.111,2.437-4.3A7.26,7.26,0,0,1,79,178.2c12.3,4.119,22.818-.475,33.1-6.586a49.55,49.55,0,0,0,7.99-5.411,3.382,3.382,0,0,1,3.368-.5c1.612.457.9,2.019.859,3.05-.6,13.506-14.857,27.1-28.859,27.081m24.177-25.5c-12.729,9.783-26.219,14.874-42.214,11.29,6.4,9.555,15.866,12.266,23.4,10.475,10.536-2.5,19.044-13.781,18.812-21.765" transform="translate(-33.278 -75.186)" fill="#e1b38b"/>
    <path id="Trazado_141" data-name="Trazado 141" d="M151.963,101.343c-.371,1.554-1.753,2.458-3.837,3.05-5.06,1.437-10.371,1.907-15.162,4.465-2.886,1.541-4.808,4.363-8,5.407-1.592.521-2.985,2.245-4.757.374a5.39,5.39,0,0,1-1.245-6.061c3.4-10.168,13.514-13.824,22.662-12.706,2.932.358,6.227.239,8.655,2.55.7.671,1.938.99,1.686,2.92m-2.634-.671a1.583,1.583,0,0,0-1.444-1.578c-3.5-.511-6.925-1.612-10.547-1.147-7.209.925-12.889,3.936-15.623,11.128-.381,1-.763,2.069.034,2.952,1.046,1.159,1.931-.067,2.7-.515,2.8-1.626,5.492-3.424,8.257-5.107,4.126-2.512,8.908-2.774,13.452-3.852,1.282-.3,2.592-.572,3.17-1.881" transform="translate(-53.86 -43.473)" fill="#e1b38b"/>
    <path id="Trazado_142" data-name="Trazado 142" d="M49.989,119.756c5.565-.038,10.416.871,14.168,5.135,2.018,2.293,1.776,4.393-1,5.717a6.007,6.007,0,0,1-3.9.642c-7.142-1.633-13.756.344-20.324,2.769a6.155,6.155,0,0,1-1.652.572c-2.376.13-5.3,1.654-6.735-1.384-1.2-2.557.288-4.655,2.249-6.527,4.922-4.7,10.664-7.118,17.19-6.924M32.235,131.883a12.392,12.392,0,0,0,7.825-.743,34.7,34.7,0,0,1,18.24-1.765c1.686.308,3.869.567,4.57-1.634.789-2.479-1.6-2.6-3.04-3.448-4.224-2.492-8.939-2.467-13.374-1.736-5.682.935-10.885,3.379-14.221,9.326" transform="translate(-13.684 -54.407)" fill="#e1b38b"/>
    <path id="Trazado_143" data-name="Trazado 143" d="M266.789,81.563c.172-1.945-.815-4.269,1.555-5.584,2.313-1.283,3.5,1.009,5.031,1.845,4.088,2.236,6.991,6.117,11.444,8.048a21.783,21.783,0,0,0,7.429,2.22,4.521,4.521,0,0,1,3.651,2.22c.832,1.287-.183,2.361-.866,3.189-5.581,6.768-20.884,6-25.173-1.508-1.758-3.079-3.78-6.442-3.072-10.431m2.151-3.122c-.6,8.047,4.51,15.077,8.378,16.573,4.953,1.914,12.115-.147,15.062-4.2-9.664-.09-15.626-7.311-23.441-12.371" transform="translate(-121.152 -34.348)" fill="#e1b38b"/>
  </g>
</svg>
