<svg xmlns="http://www.w3.org/2000/svg" xmlns:xlink="http://www.w3.org/1999/xlink" width="171.842" height="104.154" viewBox="0 0 171.842 104.154">
  <defs>
    <clipPath id="clip-path">
      <rect id="Rectángulo_73" data-name="Rectángulo 73" width="171.842" height="104.154" fill="none"/>
    </clipPath>
  </defs>
  <g id="Grupo_106" data-name="Grupo 106" clip-path="url(#clip-path)">
    <path id="Trazado_144" data-name="Trazado 144" d="M167.932,60.76c1.661.919.747,2.456.941,3.851.451-.187.747-.3,1.038-.438a1.243,1.243,0,0,1,1.6.231,1.362,1.362,0,0,1,.026,1.753,4.028,4.028,0,0,1-.372.448c-2.813,3.161-5.641,6.307-8.436,9.484-5.761,6.547-12.151,12.471-18.34,18.591-2.04,2.018-4.063,4.056-6.1,6.07a27.281,27.281,0,0,1-2.46,2.277,4.855,4.855,0,0,1-4.2,1.008c-4.237-.867-8.563-1.315-12.775-2.269-6.873-1.557-13.683-3.388-20.522-5.09Q71.365,89.965,44.4,83.262c-2.454-.612-4.9-1.258-7.35-1.872a3.445,3.445,0,0,0-2.4-.222.883.883,0,0,1-.782-.239,3.3,3.3,0,0,0-1.938-.9Q20.66,77.006,9.4,73.966c-1.263-.342-2.493-.814-3.734-1.239a3.451,3.451,0,0,0-1.955-.355c-.81.172-1.337-.435-1.735-1.089A12.768,12.768,0,0,1,.22,66.067,28.347,28.347,0,0,1,3.24,49.251a9.046,9.046,0,0,1,3.185-3.5c.49-.318.978-.642,1.491-.919,5.3-2.865,10.4-6.107,15.937-8.537.261-.115.5-.279.908-.507-2.4-1.2-2.706-3.4-2.715-5.576-.013-3.446.2-6.9.331-10.341.05-1.345.773-2.578.629-3.989-.035-.333.616-.843,1.052-1.1a8.038,8.038,0,0,1,1.9-.727C41.386,9.856,56.745,5.375,72.432,2.17,76.05,1.432,79.69.795,83.32.111a3.185,3.185,0,0,1,2.634.4,10.612,10.612,0,0,0,2.205.686c2,.764,3.991,1.541,5.959,2.377,10.337,4.389,20.657,8.822,31,13.2,11.245,4.759,22.333,9.847,33.2,15.412,1.21.62,2.456,1.173,3.686,1.757a7.406,7.406,0,0,1,.917.442c.843.555,1.039,1.38.322,2.079a2.85,2.85,0,0,0-.74,2.961c2.031.6,4.076,1.2,6.113,1.82a12.486,12.486,0,0,1,1.916.695c1.15.566,1.319,1.335.488,2.338-.9,1.084-1.883,2.1-2.828,3.146-.194.213-.383.431-.647.729.287,1.141.623,2.295.847,3.468a5.019,5.019,0,0,1-.024,1.72c-.115.716-.394,1.406-.518,2.123a1.925,1.925,0,0,0,.076,1.254c.877,1.3.718,2.569,0,4.047M74.557,14.7l-.048.046a10.076,10.076,0,0,0,1.147-.185q11.1-3.06,22.2-6.14c.222-.061.431-.159.7-.261C98.4,8,98.327,7.857,98.209,7.8c-3.821-1.809-7.635-3.636-11.487-5.382A4.3,4.3,0,0,0,84.6,2.16c-1.4.144-2.789.418-4.171.688C69.6,4.975,58.842,7.439,48.15,10.169c-7.3,1.864-14.5,4.106-21.926,5.465a2.242,2.242,0,0,0-.542.309c.246.172.392.294.555.385,4.33,2.417,8.68,4.8,12.98,7.269a3.691,3.691,0,0,0,3.146.37c10.039-2.9,20.1-5.724,30.149-8.578.69-.2,1.363-.455,2.044-.686m83.065,34.027c-1.814.588-3.507,1.187-5.229,1.689Q130.2,56.88,108,63.309a1.379,1.379,0,0,1-.562.133c-.3-.059-.749-.142-.832-.34a.981.981,0,0,1,.257-.875,4.622,4.622,0,0,1,1.361-.816c1.814-.7,3.623-1.419,5.471-2.018,10.783-3.5,21.754-6.3,32.807-8.8,3.642-.823,7.278-1.676,10.8-2.488l1.3-2.323c-.573-.747-1.1-1.428-1.626-2.112-1.931.76-3.858,1.574-5.822,2.282q-19.627,7.06-39.685,12.8c-3.27.93-6.588,1.687-9.893,2.491a2.011,2.011,0,0,1-1.97-.261,13.462,13.462,0,0,1,1.415-.673c1.06-.351,2.127-.7,3.209-.969,8.068-2.027,15.993-4.542,23.883-7.156,9.135-3.026,18.214-6.224,27.347-9.264a11.51,11.51,0,0,0,4.363-2.5c.52-.488,1.008-1.008.745-1.8-3,1.089-5.9,2.225-8.85,3.187a244.28,244.28,0,0,1-28.6,6.984c-9.257,1.824-18.427,4-27.532,6.466-.845.229-1.683.483-2.521.727a3.216,3.216,0,0,0-1.929,1.441C87.1,63.947,85.96,70.818,88.377,78.368c1.2-.276,2.288-.462,3.34-.784,3.9-1.193,7.772-2.506,11.693-3.642,10.925-3.166,21.83-6.388,32.638-9.954a214.245,214.245,0,0,1,22.094-6.5,16.158,16.158,0,0,0,1.646-.544,5.347,5.347,0,0,0-1.208-3.2c-1.319.416-2.6.856-3.9,1.221-11.367,3.211-22.718,6.481-34.116,9.579-7.174,1.951-14.419,3.64-21.636,5.428a15.569,15.569,0,0,1-1.925.22A1.65,1.65,0,0,1,98.2,68.948c.949-.374,1.907-.732,2.883-1.03,15.061-4.633,30.3-8.58,45.67-12.066,3.834-.871,7.661-1.766,11.419-2.632.176-.893.366-1.687.475-2.493a1.648,1.648,0,0,0-.181-.943,7.806,7.806,0,0,0-.84-1.054m-89.4,18.98a5.747,5.747,0,0,0-.54-.481q-4.1-2.8-8.208-5.569a3.683,3.683,0,0,0-1.189-.514q-9.931-2.335-19.873-4.637a9,9,0,0,0-.982-.107c-2.04,7.28-3.7,14.519-2.168,22.281q14.787,3.635,29.481,7.239c.468.113.949.176,1.426.257.035,0,.081-.046.115-.076a1.467,1.467,0,0,0,.118-.133,29.274,29.274,0,0,1,1.82-18.26M32.956,77.852a46.366,46.366,0,0,1,3-22.061c-10.385-1.846-20.293-4.925-30.2-8.016A32.568,32.568,0,0,0,2.539,58.63,20.827,20.827,0,0,0,3.172,67.3,10.635,10.635,0,0,0,5.13,70.983c.59.651,1.866.681,2.837.982.324.1.655.183.986.261q11.339,2.717,22.681,5.428c.366.087.747.113,1.322.2M53.78,25.505c.113-.076.229-.15.342-.226.377.2.76.388,1.132.59,1.322.723,2.6,1.537,3.971,2.147a12.3,12.3,0,0,0,3.207.908c1.676.244,2.554-.466,2.885-2.125.115-.568.139-1.156.242-1.729a23.416,23.416,0,0,1,.664-3.277,2.96,2.96,0,0,1,4.411-1.9,20.6,20.6,0,0,1,2.959,1.842c1.206.821,2.356,1.722,3.568,2.528a13.153,13.153,0,0,0,1.888.834c-.087-1.387-.189-2.493-.218-3.6-.1-4.139,2.632-6.029,6.405-4.365,1.417.625,2.726,1.491,4.1,2.225,1.411.758,2.819,1.531,4.265,2.214a12.522,12.522,0,0,0,2.164.544c-.126-1.232-.216-2.181-.327-3.129-.311-2.63.366-4.822,2.767-6.246,1.293-.769,2.6-1.515,3.895-2.282a6.07,6.07,0,0,0,.629-.477,3.318,3.318,0,0,0-3.246-.536q-5.1,1.525-10.233,2.913-22.644,6.162-45.3,12.29c-.492.135-.975.3-1.733.529.644.4,1.034.662,1.439.893,4.4,2.488,8.817,4.949,13.193,7.483a3.444,3.444,0,0,0,2.869.322c9.068-2.384,18.136-4.768,27.236-7.023,5.61-1.389,11.306-2.436,16.91-3.845,5.841-1.467,11.561-3.4,17.491-4.526.059-.011.1-.126.231-.316l-16.57-7.309c-2.073,1.463-4.006,2.85-5.963,4.2a2.993,2.993,0,0,0-1.387,2.434,19.75,19.75,0,0,0,.122,2.177,20.923,20.923,0,0,1,.144,2.177,2.326,2.326,0,0,1-2.506,2.445,7.171,7.171,0,0,1-2.689-.507c-1.644-.708-3.224-1.576-4.8-2.428-1.241-.668-2.406-1.478-3.664-2.107-2.295-1.145-3.409-.409-3.34,2.168.028,1.067.231,2.127.266,3.194.067,2.055-1.217,3.07-3.2,2.571a3.821,3.821,0,0,1-1.086-.409c-1.154-.716-2.306-1.439-3.414-2.223-1.071-.755-2.051-1.644-3.135-2.377-1.528-1.034-2.256-.738-2.737,1.006a5.687,5.687,0,0,0-.135.716c-.157,1.106-.274,2.219-.468,3.318-.429,2.425-1.785,3.623-4.206,3.536-3.5-.126-6.272-1.855-8.661-4.278-.222-.224-.253-.638-.372-.962m107.81,27.95c.47,1.226.94,2.242,1.25,3.307a1.876,1.876,0,0,1-1.217,2.591,28.714,28.714,0,0,1-3.007,1.106c-2.408.762-4.827,1.5-7.246,2.221a4.058,4.058,0,0,0-2.65,1.6c-.261.425-.832.653-1.25.986q-5.065,4.049-10.126,8.108a8.715,8.715,0,0,0-3.634,5.75,1.946,1.946,0,0,1-.094.274,50.647,50.647,0,0,0-2.142,17.13,26.363,26.363,0,0,0,.725,4.6,1.32,1.32,0,0,0,2.334.614c.425-.4.81-.84,1.21-1.265,2.532-2.687,5.018-5.423,7.607-8.055,8.04-8.186,16.063-16.385,23.6-25.05.372-.429.734-.866,1.158-1.367a1.958,1.958,0,0,1-.845-2.382c.1-.446.335-.967-.372-1.332-.261.2-.579.407-.853.66-3.279,3.041-6.566,6.072-9.821,9.14-3.61,3.4-7.163,6.856-10.792,10.235-1.169,1.089-2.488,2.018-3.762,2.994a4.4,4.4,0,0,1-.943.42c-.057-.083-.113-.168-.17-.253.383-.416.747-.853,1.154-1.247,4.4-4.258,8.787-8.537,13.226-12.756A90.219,90.219,0,0,1,166.1,61.874c.207-.832.44-1.57.553-2.323a2.534,2.534,0,0,0-.076-1.511,3.719,3.719,0,0,1-.361-3.222,5.344,5.344,0,0,0-.627-4.755c-1.356,1.15-2.678,2.273-4,3.392m-21.414-26.64c-.292-.279-.348-.368-.431-.407-4.814-2.214-9.623-4.437-14.452-6.619a2.79,2.79,0,0,0-1.55-.2c-2.245.4-4.5.779-6.7,1.367-5.584,1.494-11.11,3.224-16.72,4.611-4.711,1.167-9.532,1.9-14.269,2.972-8.626,1.953-17.226,4.019-25.834,6.046a3.113,3.113,0,0,0-.64.331,3,3,0,0,0,.4.357c5.277,3.013,10.566,6.011,15.832,9.046a2.171,2.171,0,0,0,1.807.12c3-.825,6.018-1.583,8.994-2.486,8.23-2.5,16.4-5.2,24.674-7.542,8.648-2.451,17.385-4.583,26.082-6.854.877-.229,1.753-.462,2.815-.742M132.61,77.378c-2.073-.516-4.049-.993-6.015-1.5-4.141-1.062-8.454-1.132-12.595-2.205a1.915,1.915,0,0,0-.847.152c-2.114.557-4.219,1.145-6.342,1.67a1.8,1.8,0,0,0-1.43,1.256c-.882,2.519-1.89,5-2.711,7.535a22.516,22.516,0,0,0-.995,9.5c.152,1.389.185,1.422,1.483,1.779a243.694,243.694,0,0,0,25,5.669c.462.076.93.1,1.548.172a40.358,40.358,0,0,1,2.9-24.027M69.719,68.512c-.185.485-.307.747-.385,1.019a37.894,37.894,0,0,0-1.406,8.608,16.227,16.227,0,0,0,1.2,7.986,1.994,1.994,0,0,0,1.448,1.232q13.856,3.432,27.7,6.908a7.816,7.816,0,0,0,1.119.118c0-.612.013-1.091,0-1.568a20.572,20.572,0,0,1,.88-7.487c.945-2.7,2.127-5.308,3.2-7.957.113-.281.2-.57.355-1.015-.664.181-1.13.3-1.591.433-3.039.847-6.063,1.755-9.124,2.521a26.363,26.363,0,0,1-4.6.679,3.623,3.623,0,0,1-2.053-.564c-2-1.28-3.9-2.719-5.894-4.012-3.54-2.3-7.119-4.531-10.855-6.9m74.663-36.987c-.52.279-.91.529-1.332.705-.716.3-1.446.575-2.181.825a6.3,6.3,0,0,0-4.139,4.187,17.928,17.928,0,0,1-1.4,3.194c-1.5,2.6-5.349,4.433-8.632,1.047-.908-.936-1.644-2.04-2.471-3.059a19.089,19.089,0,0,0-1.792-2.1,2.209,2.209,0,0,0-3.368.089,6.568,6.568,0,0,0-1.276,1.922c-.392.882-.594,1.846-.91,2.765a24.565,24.565,0,0,1-1.1,3c-1.609,3.244-4.459,4.01-7.513,2.036a21.508,21.508,0,0,1-2.166-1.72c-.631-.533-1.208-1.13-1.846-1.657-2.2-1.818-3.723-1.247-4.241,1.576a5.788,5.788,0,0,0-.067.581c-.074.921-.183,1.842-.2,2.763a5.579,5.579,0,0,1-1.755,4.457,7.082,7.082,0,0,0,1.459-.27c3.126-.91,6.218-1.968,9.381-2.717,7.711-1.824,15.453-3.512,23.184-5.247A266.262,266.262,0,0,0,158.8,36.885c.49-.165.978-.346,1.587-.562a2.922,2.922,0,0,0-.442-.383c-5.36-2.539-10.716-5.088-16.1-7.581a2.929,2.929,0,0,0-1.811-.146c-6.745,1.676-13.476,3.405-20.208,5.127a7.476,7.476,0,0,0-.88.4,7,7,0,0,1,4.55,3.176c.525.7,1.023,1.422,1.585,2.092a11.482,11.482,0,0,0,1.517,1.568,2.945,2.945,0,0,0,4,.061,8.006,8.006,0,0,0,1.733-2.284c.509-.932.782-1.99,1.226-2.961a8.177,8.177,0,0,1,8.371-4.278c.076.013.137.122.446.414M55.311,36.071c-.579,2.273-1.156,4.276-1.594,6.307a39.479,39.479,0,0,0-1,9.686,2.122,2.122,0,0,0,.877,1.87c4.5,3.227,8.97,6.5,13.453,9.749.379.274.8.488,1.419.864a34.486,34.486,0,0,1,.927-9.425,26.9,26.9,0,0,1,3.7-8.632c-5.9-3.455-11.7-6.858-17.779-10.42M74.4,47.263a6.93,6.93,0,0,0-.464.712A35.541,35.541,0,0,0,70.562,64.94a2.191,2.191,0,0,0,1.117,1.883c4.121,2.741,8.21,5.534,12.316,8.3a3.259,3.259,0,0,0,.644.253c-.4-7.06.649-13.625,5.364-19.231-5.192-2.957-10.328-5.878-15.6-8.883M53.079,57.4c.052-.111.1-.222.155-.333-8.963-6.619-18.395-12.6-27.071-19.677-.366.183-.712.351-1.052.529Q17.133,42.157,9.162,46.4a4.334,4.334,0,0,0-.623.56c7.607,1.774,14.977,3.486,22.346,5.212q11.1,2.6,22.194,5.221m-2.127-5.491a36.815,36.815,0,0,1,3.213-16.333c-1.507-1.256-14.609-8.87-15.636-9.087-.078.22-.161.446-.242.671a45.022,45.022,0,0,0-2.1,13.779,1.752,1.752,0,0,0,.936,1.646c4.313,2.911,8.6,5.857,12.9,8.787.2.133.414.239.934.538m35.914-6.427c.705.451,1.191.736,1.648,1.06,1.228.873,2.4,1.833,3.679,2.619a11.947,11.947,0,0,0,2.917,1.28c1.644.477,2.484-.122,2.743-1.838.107-.716.046-1.461.148-2.179a20.74,20.74,0,0,1,.712-4c.943-2.669,3.351-3.462,5.756-1.977a27.344,27.344,0,0,1,2.628,2.075c.832.668,1.607,1.424,2.5,2,1.944,1.261,3.488.862,4.6-1.189a14.716,14.716,0,0,0,1.117-2.839c.677-2.3,1.374-4.565,3.677-6.248-.333.1-40.451,11.415-40.527,11.437a3.04,3.04,0,0,0,.435.385q6.45,3.847,12.91,7.672a1.169,1.169,0,0,0,.806.17c1.291-.368,2.567-.795,3.847-1.2-4.161-.771-9.42-4.463-9.59-7.235M37.24,25.427c-4.359-2.593-8.658-5.153-13.078-7.785a54.957,54.957,0,0,0-.653,9.046c-.007,1.356.061,2.717.183,4.067A5.115,5.115,0,0,0,25.8,34.588q3.762,2.74,7.559,5.434c.126.089.342.054.566.085.279-5.088.821-10.041,3.316-14.68M143.33,65.336c-.037-.078-.074-.159-.109-.237-3.975,1.217-7.94,2.462-11.924,3.647s-8.012,2.312-12.077,3.481l13.492,2.6c3.5-3.131,7.06-6.309,10.618-9.49m17.441-13.494c2.7-2.7,5.436-5.425,8.251-8.234l-7.483-2.186c-.8.727-1.541,1.4-2.266,2.055,1.585,2.1,1.881,1.868.274,4.546,1.187,1.746,1.187,1.746,1.224,3.819" transform="translate(0 0)" fill="#efbe94"/>
  </g>
</svg>
