<svg xmlns="http://www.w3.org/2000/svg" xmlns:xlink="http://www.w3.org/1999/xlink" width="147.168" height="147.46" viewBox="0 0 147.168 147.46">
  <defs>
    <clipPath id="clip-path">
      <rect id="Rectángulo_72" data-name="Rectángulo 72" width="147.168" height="147.46" fill="#efbe94"/>
    </clipPath>
  </defs>
  <g id="Grupo_104" data-name="Grupo 104" clip-path="url(#clip-path)">
    <path id="Trazado_139" data-name="Trazado 139" d="M147.166,46.805c.21,22.534-16.636,42.106-38.288,45.777-4.565.775-9.2,1.251-13.819,1.58a11.127,11.127,0,0,0-7.8,3.708c-9.1,9.81-19.1,18.7-28.815,27.873-5.064,4.783-10.786,8.891-16.364,13.1a51.733,51.733,0,0,1-12.59,6.775c-6.369,2.471-12.65,2.624-18.889-.587C3.777,141.523.369,135.824.032,128.36c-.366-8.077,2.4-15.286,7.3-21.6a126.516,126.516,0,0,1,9.552-10.954c9.4-9.6,19.26-18.738,29.235-27.743,1.748-1.577,3.373-3.285,5.092-4.894,2.077-1.935,4.116-3.924,6.321-5.7a2.8,2.8,0,0,0,1.109-3.16c-1-5.419-1.342-10.891.048-16.284A42.843,42.843,0,0,1,61.6,29.834c7.073-14.4,18.321-24.157,33.774-28.353,15.87-4.307,29.017.973,39.536,13.229a62.654,62.654,0,0,1,5.5,7.8,44.752,44.752,0,0,1,6.758,24.293m-6.539-1.66a36.429,36.429,0,0,0-5.461-19.717c-1.5-2.485-3.189-4.863-4.894-7.214-4.131-5.7-9.8-9.351-16.33-11.629-7.39-2.576-14.764-1.807-21.952.945C79.93,12.146,71.155,20.43,65.3,31.866a21.086,21.086,0,0,0-1.708,4.44c-1.484,5.963-2.159,11.995-.967,18.106A5.331,5.331,0,0,1,60.5,60.079a29.051,29.051,0,0,0-2.573,2.411c-3.294,3.265-6.534,6.59-9.873,9.807C38.586,81.43,29,90.446,19.618,99.666a88.487,88.487,0,0,0-8.534,9.9c-4,5.3-6.675,11.232-6.451,18.037a14.166,14.166,0,0,0,7.331,12.474,17.863,17.863,0,0,0,16.347,1.305,53.071,53.071,0,0,0,12.349-6.766A124.587,124.587,0,0,0,55.639,121.8q13.8-14.107,27.533-28.273c.627-.644,1.277-1.268,1.94-1.878a12.085,12.085,0,0,1,7.05-3.228c2.411-.264,4.817-.553,7.226-.817a64.22,64.22,0,0,0,15-3.118c13.144-4.772,26.69-19.955,26.234-39.337" transform="translate(-0.001 -0.001)" fill="#efbe94"/>
    <path id="Trazado_140" data-name="Trazado 140" d="M84.938,30.527c-.023,19.135-13.365,33.916-30.143,35.4-14.122,1.245-25.485-7.58-29.011-20.6C21.129,28.132,34.624,8.509,52.508,5.791A28.537,28.537,0,0,1,70.118,8.237c9.992,5.075,14.511,13.586,14.82,22.29m-4.343,2.709a26.425,26.425,0,0,0-1.447-8.352C75.5,14.518,65.459,8.688,56.389,9.493c-11.739,1.041-20.057,7.044-24.67,17.881a26.145,26.145,0,0,0-1.39,17.1A22.8,22.8,0,0,0,52.372,61.45c15.1.218,28.3-12.982,28.222-28.214" transform="translate(45.662 9.877)" fill="#efbe94"/>
    <path id="Trazado_141" data-name="Trazado 141" d="M51.236,39.376a25.721,25.721,0,0,1-1.072,4.616,66.539,66.539,0,0,1-3.7,7.166,20.342,20.342,0,0,1-2.7,3.416A111.578,111.578,0,0,1,20.256,74.22c-.826.508-1.677.973-2.536,1.421-4.026,2.114-7.464,1.089-10.369-2.67a9.52,9.52,0,0,1-1.228-9.646A30.879,30.879,0,0,1,14.069,51.8,170.894,170.894,0,0,1,29.734,38.82c1.884-1.407,3.719-2.885,5.535-4.38a14.575,14.575,0,0,1,6.661-3.194c4.826-.916,8.148,1.373,8.953,6.23.1.613.133,1.237.2,1.855l.156.045M32.685,59.465c4.417-4.19,8.988-8.017,12.222-13.093a25.835,25.835,0,0,0,2.062-4.29,6.632,6.632,0,0,0,.264-4.278c-.755-2.755-2.454-3.881-5.265-3.407a11.946,11.946,0,0,0-5.214,2.428c-2.372,1.793-4.775,3.543-7.146,5.339-1.867,1.41-3.7,2.863-5.484,4.244,2.863,4.366,5.623,8.576,8.562,13.056M21.9,48.35c-3.958,3.867-8.111,7.546-10.727,12.514a19.222,19.222,0,0,0-1.645,5.09,8.7,8.7,0,0,0,.116,3.484c.879,4.04,3.472,5.135,7.024,3.047a60.245,60.245,0,0,0,12.091-9.376,5.967,5.967,0,0,0,.59-.76c-2.494-4.69-4.891-9.189-7.45-14" transform="translate(9.838 57.032)" fill="#efbe94"/>
    <path id="Trazado_142" data-name="Trazado 142" d="M34.528,31.2c-.017,2.116-2.3,3.994-4.792,3.949a3.514,3.514,0,0,1-3.631-3.691,4.12,4.12,0,0,1,4.182-4.026c2.633-.026,4.261,1.418,4.241,3.767" transform="translate(47.951 50.395)" fill="#efbe94"/>
    <path id="Trazado_143" data-name="Trazado 143" d="M26.809,24.186a3.364,3.364,0,0,1,3.072,1.889,3.137,3.137,0,0,1-.6,3.484,4.555,4.555,0,0,1-3.453,2.023A3.367,3.367,0,0,1,22.613,27a4.856,4.856,0,0,1,4.2-2.811" transform="translate(41.119 44.428)" fill="#efbe94"/>
  </g>
</svg>
