<?xml version="1.0" encoding="utf-8"?>
<!-- Generator: Adobe Illustrator 27.7.0, SVG Export Plug-In . SVG Version: 6.00 Build 0)  -->
<svg version="1.1" id="Grupo_74" xmlns="http://www.w3.org/2000/svg" xmlns:xlink="http://www.w3.org/1999/xlink" x="0px" y="0px"
	 viewBox="0 0 142 142" style="enable-background:new 0 0 142 142;" xml:space="preserve">
<style type="text/css">
	.st0{clip-path:url(#SVGID_00000078013303382022014260000001116769597608078733_);}
	.st1{fill:#54171A;}
	.st2{fill:#EFBE94;}
</style>
<g>
	<defs>
		<rect id="SVGID_1_" x="3.8" y="5.9" width="134.3" height="130.3"/>
	</defs>
	<clipPath id="SVGID_00000096035414650451674730000004763109217923167630_">
		<use xlink:href="#SVGID_1_"  style="overflow:visible;"/>
	</clipPath>
	<g id="Grupo_73" transform="translate(0 0)" style="clip-path:url(#SVGID_00000096035414650451674730000004763109217923167630_);">
		<path id="Trazado_100" class="st1" d="M75.4,136.1c-34.6,0-62.7-28.1-62.7-62.7s28.1-62.7,62.7-62.7s62.7,28.1,62.7,62.7
			c0,0,0,0,0,0C138.1,108,110.1,136.1,75.4,136.1 M75.4,15.2c-32.2,0-58.2,26.1-58.2,58.2s26.1,58.2,58.2,58.2
			c32.2,0,58.2-26.1,58.2-58.2C133.7,41.3,107.6,15.2,75.4,15.2"/>
		<path id="Trazado_101" class="st1" d="M57.2,32.5c0,14.7-11.9,26.7-26.7,26.7S3.8,47.3,3.8,32.5c0-14.7,11.9-26.7,26.7-26.7
			C45.2,5.9,57.2,17.8,57.2,32.5C57.2,32.5,57.2,32.5,57.2,32.5"/>
		<path id="Trazado_102" class="st2" d="M16.2,33.4c0.1,0.5,0.4,1,0.8,1.3c0.4,0.3,1,0.5,1.5,0.4c0.3,0,0.6-0.1,0.9-0.2
			c0.3-0.1,0.5-0.3,0.8-0.5c0.5-0.4,0.7-1,0.7-1.6c0-0.4-0.1-0.9-0.3-1.2c-0.2-0.3-0.5-0.5-0.8-0.7c-0.4-0.2-0.7-0.3-1.1-0.3
			c-0.4,0-0.8-0.1-1.2-0.1v-1.5c0.5,0,1.1,0,1.6-0.1c0.3-0.1,0.7-0.2,1-0.4c0.2-0.1,0.4-0.4,0.5-0.6c0.1-0.3,0.2-0.5,0.1-0.8
			c0-0.6-0.2-1.1-0.6-1.5c-0.4-0.4-1-0.5-1.5-0.5c-0.4,0-0.9,0.1-1.2,0.4c-0.4,0.3-0.7,0.6-0.8,1.1L14.6,26c0.3-0.7,0.8-1.4,1.5-1.8
			c0.7-0.4,1.5-0.6,2.3-0.6c0.5,0,1,0.1,1.5,0.2c0.4,0.1,0.9,0.3,1.2,0.6c0.4,0.3,0.6,0.7,0.8,1.1c0.2,0.5,0.3,1,0.3,1.5
			c0,0.6-0.2,1.3-0.6,1.8c-0.4,0.5-0.9,0.9-1.5,1.1v0c0.4,0.1,0.7,0.2,1,0.4c0.3,0.2,0.6,0.4,0.8,0.7c0.2,0.3,0.4,0.6,0.5,0.9
			c0.1,0.4,0.2,0.7,0.2,1.1c0,0.5-0.1,1.1-0.3,1.6c-0.2,0.4-0.5,0.8-0.9,1.1c-0.4,0.3-0.8,0.5-1.3,0.7c-0.5,0.2-1,0.2-1.6,0.2
			c-0.9,0-1.8-0.2-2.5-0.6c-0.8-0.5-1.3-1.2-1.5-2.1L16.2,33.4z"/>
		<path id="Trazado_103" class="st2" d="M24,30.2c0-0.5,0-0.9,0.1-1.4c0-0.5,0.1-1,0.3-1.5c0.1-0.5,0.3-0.9,0.5-1.4
			c0.2-0.4,0.5-0.8,0.8-1.1c0.3-0.3,0.7-0.6,1.1-0.8c0.5-0.2,1-0.3,1.5-0.3c0.5,0,1.1,0.1,1.5,0.3c0.4,0.2,0.8,0.5,1.2,0.8
			c0.3,0.3,0.6,0.7,0.8,1.1c0.2,0.4,0.4,0.9,0.5,1.4c0.1,0.5,0.2,1,0.3,1.5c0,0.5,0.1,1,0.1,1.4c0,0.7-0.1,1.4-0.2,2.1
			c-0.1,0.7-0.3,1.4-0.7,2.1c-0.3,0.6-0.8,1.2-1.3,1.6c-0.6,0.4-1.4,0.7-2.2,0.6c-0.8,0-1.5-0.2-2.2-0.6c-0.6-0.4-1-1-1.3-1.6
			c-0.3-0.7-0.5-1.4-0.7-2.1C24,31.6,24,30.9,24,30.2 M25.7,30.2c0,0.4,0,0.9,0.1,1.5c0.1,0.6,0.2,1.1,0.3,1.6
			c0.2,0.5,0.4,1,0.8,1.3c0.4,0.4,0.9,0.6,1.4,0.5c0.5,0,1-0.2,1.4-0.5c0.4-0.4,0.6-0.8,0.8-1.3c0.2-0.5,0.3-1.1,0.3-1.6
			c0.1-0.6,0.1-1.1,0.1-1.5c0-0.3,0-0.6,0-1c0-0.4-0.1-0.7-0.1-1.1c-0.1-0.4-0.2-0.7-0.3-1.1c-0.1-0.3-0.3-0.6-0.5-0.9
			c-0.2-0.3-0.4-0.5-0.7-0.7c-0.3-0.2-0.7-0.3-1-0.2c-0.4,0-0.7,0.1-1,0.2c-0.3,0.2-0.5,0.4-0.7,0.7c-0.2,0.3-0.4,0.6-0.5,0.9
			c-0.1,0.3-0.2,0.7-0.3,1.1c-0.1,0.4-0.1,0.7-0.1,1.1C25.7,29.6,25.7,29.9,25.7,30.2"/>
		<path id="Trazado_104" class="st2" d="M34.4,28.1h1.5v1.3h0c0.1-0.2,0.2-0.3,0.3-0.4c0.2-0.2,0.4-0.4,0.6-0.5
			c0.3-0.2,0.5-0.3,0.8-0.4c0.3-0.1,0.7-0.2,1-0.2c0.5,0,1.1,0.1,1.6,0.4c0.4,0.3,0.8,0.7,1,1.2c0.3-0.5,0.7-0.9,1.1-1.2
			c0.5-0.3,1-0.4,1.5-0.4c0.5,0,1.1,0.1,1.6,0.3c0.4,0.2,0.7,0.5,1,0.8c0.2,0.4,0.4,0.8,0.5,1.2c0.1,0.4,0.1,0.9,0.1,1.4v4.9h-1.6
			v-4.7c0-0.3,0-0.6-0.1-0.9c0-0.3-0.1-0.5-0.3-0.8c-0.1-0.2-0.3-0.4-0.5-0.5c-0.3-0.1-0.6-0.2-0.9-0.2c-0.6-0.1-1.2,0.2-1.6,0.7
			c-0.3,0.5-0.5,1.2-0.5,1.8v4.6h-1.6v-4.4c0-0.4,0-0.7-0.1-1.1c0-0.3-0.1-0.6-0.3-0.9c-0.1-0.2-0.3-0.4-0.5-0.6
			c-0.3-0.1-0.6-0.2-0.9-0.2c-0.3,0-0.6,0.1-0.8,0.2c-0.3,0.1-0.5,0.3-0.7,0.5c-0.2,0.2-0.4,0.5-0.5,0.9C36,31.3,36,31.7,36,32.1
			v4.3h-1.6V28.1z"/>
		<path id="Trazado_105" class="st1" d="M95.4,54c-3.8,3.1-7.5,6.2-11.3,9.3c-2.5,2.1-5,4.1-7.5,6.2c-1,0.9-2.9,1.9-3.4,3.3
			C73,73.9,73,75,73.1,76v42.1c0,2.6,4,2.6,4,0V78.6c0-1.4,0.4-3.5,0-4.8c-0.3-1-0.8,0.9-0.4,0.9c0.5-0.1,1.4-1.2,1.8-1.5l6.8-5.6
			c4.3-3.6,8.7-7.1,13-10.7C100.2,55.2,97.4,52.4,95.4,54"/>
	</g>
</g>
</svg>
