<svg enable-background="new 0 0 142 142" viewBox="0 0 142 142" xmlns="http://www.w3.org/2000/svg" xmlns:xlink="http://www.w3.org/1999/xlink"><clipPath id="a"><path d="m3.8 5.9h134.3v130.3h-134.3z"/></clipPath><g clip-path="url(#a)"><path d="m75.4 136.1c-34.6 0-62.7-28.1-62.7-62.7s28.1-62.7 62.7-62.7 62.7 28.1 62.7 62.7c0 34.6-28 62.7-62.7 62.7m0-120.9c-32.2 0-58.2 26.1-58.2 58.2s26.1 58.2 58.2 58.2c32.2 0 58.2-26.1 58.2-58.2.1-32.1-26-58.2-58.2-58.2" fill="#54171a"/><path d="m57.2 32.5c0 14.7-11.9 26.7-26.7 26.7s-26.7-11.9-26.7-26.7c0-14.7 11.9-26.7 26.7-26.7 14.7.1 26.7 12 26.7 26.7z" fill="#54171a"/><g fill="#efbe94"><path d="m16.2 33.4c.1.5.4 1 .8 1.3s1 .5 1.5.4c.3 0 .6-.1.9-.2s.5-.3.8-.5c.5-.4.7-1 .7-1.6 0-.4-.1-.9-.3-1.2s-.5-.5-.8-.7c-.4-.2-.7-.3-1.1-.3s-.8-.1-1.2-.1v-1.5c.5 0 1.1 0 1.6-.1.3-.1.7-.2 1-.4.2-.1.4-.4.5-.6.1-.3.2-.5.1-.8 0-.6-.2-1.1-.6-1.5s-1-.5-1.5-.5c-.4 0-.9.1-1.2.4-.4.3-.7.6-.8 1.1l-2-.6c.3-.7.8-1.4 1.5-1.8s1.5-.6 2.3-.6c.5 0 1 .1 1.5.2.4.1.9.3 1.2.6.4.3.6.7.8 1.1.2.5.3 1 .3 1.5 0 .6-.2 1.3-.6 1.8s-.9.9-1.5 1.1c.4.1.7.2 1 .4s.6.4.8.7.4.6.5.9c.1.4.2.7.2 1.1 0 .5-.1 1.1-.3 1.6-.2.4-.5.8-.9 1.1s-.8.5-1.3.7-1 .2-1.6.2c-.9 0-1.8-.2-2.5-.6-.8-.5-1.3-1.2-1.5-2.1z"/><path d="m24 30.2c0-.5 0-.9.1-1.4 0-.5.1-1 .3-1.5.1-.5.3-.9.5-1.4.2-.4.5-.8.8-1.1s.7-.6 1.1-.8c.5-.2 1-.3 1.5-.3s1.1.1 1.5.3.8.5 1.2.8c.3.3.6.7.8 1.1s.4.9.5 1.4.2 1 .3 1.5c0 .5.1 1 .1 1.4 0 .7-.1 1.4-.2 2.1s-.3 1.4-.7 2.1c-.3.6-.8 1.2-1.3 1.6-.6.4-1.4.7-2.2.6-.8 0-1.5-.2-2.2-.6-.6-.4-1-1-1.3-1.6-.3-.7-.5-1.4-.7-2.1-.1-.7-.1-1.4-.1-2.1m1.7 0c0 .4 0 .9.1 1.5s.2 1.1.3 1.6c.2.5.4 1 .8 1.3.4.4.9.6 1.4.5.5 0 1-.2 1.4-.5.4-.4.6-.8.8-1.3s.3-1.1.3-1.6c.1-.6.1-1.1.1-1.5 0-.3 0-.6 0-1s-.1-.7-.1-1.1c-.1-.4-.2-.7-.3-1.1-.1-.3-.3-.6-.5-.9s-.4-.5-.7-.7-.7-.3-1-.2c-.4 0-.7.1-1 .2-.3.2-.5.4-.7.7s-.4.6-.5.9-.2.7-.3 1.1-.1.7-.1 1.1z"/><path d="m34.4 28.1h1.5v1.3c.1-.2.2-.3.3-.4.2-.2.4-.4.6-.5.3-.2.5-.3.8-.4s.7-.2 1-.2c.5 0 1.1.1 1.6.4.4.3.8.7 1 1.2.3-.5.7-.9 1.1-1.2.5-.3 1-.4 1.5-.4s1.1.1 1.6.3c.4.2.7.5 1 .8.2.4.4.8.5 1.2s.1.9.1 1.4v4.9h-1.6v-4.7c0-.3 0-.6-.1-.9 0-.3-.1-.5-.3-.8-.1-.2-.3-.4-.5-.5-.3-.1-.6-.2-.9-.2-.6-.1-1.2.2-1.6.7-.3.5-.5 1.2-.5 1.8v4.6h-1.6v-4.4c0-.4 0-.7-.1-1.1 0-.3-.1-.6-.3-.9-.1-.2-.3-.4-.5-.6-.3-.1-.6-.2-.9-.2s-.6.1-.8.2c-.3.1-.5.3-.7.5s-.4.5-.5.9-.1.8-.1 1.2v4.3h-1.6z"/></g><path d="m95.4 54c-3.8 3.1-7.5 6.2-11.3 9.3-2.5 2.1-5 4.1-7.5 6.2-1 .9-2.9 1.9-3.4 3.3-.2 1.1-.2 2.2-.1 3.2v42.1c0 2.6 4 2.6 4 0v-39.5c0-1.4.4-3.5 0-4.8-.3-1-.8.9-.4.9.5-.1 1.4-1.2 1.8-1.5l6.8-5.6c4.3-3.6 8.7-7.1 13-10.7 1.9-1.7-.9-4.5-2.9-2.9" fill="#54171a"/></g></svg>